<svg xmlns="http://www.w3.org/2000/svg" >
  <symbol viewBox="0 0 356.52887 65.087952" id="pentagono-imagotipo">
    <path d="M5 2.8a5 5 0 0 0-5 5v4.03h10V7.8a5 5 0 0 0-5-5zm5 9.03v29.225l27.795 9.03 17.178-23.642L37.795 2.8 10 11.83zm0 29.225H0v19.033c0 2.76 2.24 5 5 5s5-2.24 5-5V41.055zm23.975-26.5l8.636 11.888-8.635 11.89-6.99-2.272 6.99-9.617-6.99-9.62 6.99-2.268z"/>
    <path d="M85.76 7.98H73.11v40.903h8.69v-13.95h4.668c9.34 0 16.078-4.315 16.078-13.772 0-8.924-6.384-13.18-16.787-13.18zm0 20.57H81.8V14.245h3.84c5.084 0 7.92 2.128 7.92 6.916 0 5.557-3.013 7.39-7.8 7.39zM133.06 32.51c0-9.99-5.26-15.9-14.127-15.9-9.162 0-14.245 7.33-14.245 16.786 0 9.813 5.26 16.433 15.31 16.433 4.905 0 8.806-1.775 11.88-4.257l-3.488-4.73c-2.72 1.893-4.965 2.72-7.625 2.72-4.02 0-6.857-1.773-7.448-7.802h19.565c.06-.886.178-2.186.178-3.25zm-8.335-2.01h-11.408c.414-5.91 2.483-8.157 5.793-8.157 4.02 0 5.615 3.074 5.615 7.802v.355zM156.894 16.61c-4.02 0-7.034 1.773-9.576 4.906l-.65-3.96h-7.27v31.327h8.393V27.25c1.715-2.78 3.607-4.375 6.03-4.375 2.128 0 3.428 1.005 3.428 4.61v21.398h8.394V26.067c0-5.91-3.25-9.457-8.748-9.457zM189.713 42.085c-1.3.71-2.423 1.064-3.546 1.064-2.128 0-3.133-1.183-3.133-4.256V23.466h6.384l.827-5.91h-7.21V9.693L174.64 10.7v6.855h-4.67v5.91h4.67v15.606c0 6.976 3.31 10.7 9.813 10.76 2.778 0 5.85-.83 8.157-2.425l-2.897-5.32zM215.38 6.443L212.07 0l-12.65 7.566 2.365 4.315 13.595-5.437zm4.493 33.75V27.546c0-7.093-3.724-10.935-12.413-10.935-3.547 0-7.684.768-11.585 2.305l1.89 5.615c3.193-1.064 6.207-1.655 8.276-1.655 3.96 0 5.617 1.24 5.617 5.143v1.536h-3.606c-9.28 0-14.422 3.724-14.422 10.58 0 5.675 3.902 9.695 10.167 9.695 3.724 0 7.152-1.302 9.398-4.73 1.3 3.133 3.665 4.315 7.212 4.61l1.773-5.556c-1.537-.532-2.305-1.418-2.305-3.96zM206.1 43.8c-2.6 0-4.02-1.596-4.02-4.374 0-3.43 2.247-5.084 6.798-5.084h2.78v5.97c-1.302 2.246-3.134 3.488-5.558 3.488zM253.874 12.827c-3.783 2.128-7.448 3.96-14.66 3.783-7.86 0-13.358 4.433-13.358 11.348 0 4.02 1.655 6.798 5.556 8.926-2.246 1.418-3.664 3.606-3.664 5.852 0 3.31 2.72 6.147 9.28 6.147h4.61c3.31 0 4.906 1.3 4.906 3.428 0 2.247-1.537 3.843-7.33 3.843-5.97 0-7.27-1.3-7.27-4.256h-7.507c0 6.266 3.133 9.99 14.6 9.99 10.463 0 15.96-3.842 15.96-10.167 0-5.2-4.552-8.984-11.645-8.984h-4.788c-3.073 0-3.605-1.005-3.605-2.07 0-.827.472-1.595 1.18-2.068 1.124.296 2.306.414 3.666.414 7.98 0 12.885-4.433 12.885-10.522 0-3.96-1.95-6.324-5.79-8.038 3.782 0 6.737-.296 9.042-1.183l-2.068-6.443zm-14.482 9.398c3.487 0 5.2 1.773 5.2 5.497 0 3.842-1.772 5.852-5.14 5.852-3.193 0-5.203-2.128-5.203-5.734 0-3.428 1.95-5.615 5.142-5.615zM272.33 16.61c-9.458 0-15.073 6.62-15.073 16.61 0 10.402 5.674 16.61 15.013 16.61 9.4 0 15.014-6.68 15.014-16.61 0-10.404-5.615-16.61-14.955-16.61zm0 6.265c4.078 0 6.206 3.133 6.206 10.344 0 7.15-2.128 10.343-6.266 10.343-4.137 0-6.265-3.133-6.265-10.344 0-7.153 2.128-10.345 6.324-10.345zM311.415 16.61c-4.02 0-7.034 1.773-9.576 4.906l-.65-3.96h-7.27v31.327h8.392V27.25c1.714-2.78 3.606-4.375 6.03-4.375 2.127 0 3.427 1.005 3.427 4.61v21.398h8.393V26.067c0-5.91-3.25-9.457-8.748-9.457zM341.574 16.61c-9.457 0-15.072 6.62-15.072 16.61 0 10.402 5.674 16.61 15.013 16.61 9.4 0 15.014-6.68 15.014-16.61 0-10.404-5.616-16.61-14.956-16.61zm0 6.265c4.08 0 6.207 3.133 6.207 10.344 0 7.15-2.127 10.343-6.265 10.343-4.137 0-6.265-3.133-6.265-10.344 0-7.153 2.128-10.345 6.324-10.345z"/>
  </symbol>
  <symbol viewBox="0 0 54.97266 62.28906" id="pentagono-isotipo">
    <path d="M5 0a5 5 0 0 0-5 5v4.03h10V5a5 5 0 0 0-5-5zm5 9.03v29.226l27.795 9.03 17.178-23.64L37.795 0 10 9.03zm0 29.226H0V57.29c0 2.76 2.24 5 5 5s5-2.24 5-5V38.255zm23.975-26.5l8.636 11.89-8.635 11.887-6.99-2.27 6.99-9.618-6.99-9.62 6.99-2.27z"/>
  </symbol>
  <symbol viewBox="0 0 88.025002 26.5" id="uandes-imagotipo">
    <path d="M0 1.3S6 0 11 0s11.3 1.3 11.3 1.3v19.3c0 1.6-1 2.4-1.3 2.7-.8.6-4.2 3.2-9.9 3.2-5.3 0-8.6-2.3-9.9-3.2-.5-.5-1.2-1.4-1.2-2.7V1.3z" clip-rule="evenodd" fill="#fff100" fill-rule="evenodd"/>
    <path d="M20.7 23.6c-4.6 3-9.3 2.8-9.3 2.8s-.1-.6-.1-1.6c.1-1 .6-.7 1-1.6.1-.3.3-.5.5-1.2 0 0-.3-5-.3-7.1 0-1.1-.3-3-.5-4.9-.1-1.1-.5-2-.6-3-.2-1.5-.5-3.2-.5-3.2-.2.5-.5 2.3-.7 4.3-.1 1-.3 2-.4 3-.3 2-.9 7.5-1 7.8-.1.4-.2-.1-.2-.1s.4-5.7.5-8.2c.1-1.2.1-2.6.3-3.9.1-1 .3-1.9.5-2.7 0 0 .7-2 .9-2 .2 0 1 1.2 1.2 2.4.6 2.6.9 2.9 1.4 5.6.4 2.6.8 4.7.8 5.1.2 1.3.1 5.3-.2 6.8-.1.4-.1.6-.4.9-.7.7-1.1 1.5-1.1 2s-.1.5 0 .8c0 0 .9 1.3 5.9-1.7 0 0 1.6-.8 1.6-2.6V2.7S15 1 11.2 1C7.4 1 2.6 2.7 2.6 2.7v18.2c0 1.1.2 3.2 1.8 3.9 0 0-4.3-1.5-4.3-4V1.2S6.6 0 11.2 0s11.2 1.2 11.2 1.2V21c-.1 1.7-1.7 2.6-1.7 2.6zM82.6 8.3c-.5.3-1.1.4-1.8.4-.8 0-1.4-.2-1.8-.7-.4-.5-.6-1.1-.6-2 0-.8.2-1.5.6-2 .4-.5 1-.7 1.7-.7.3 0 .6 0 .8.1V1.3h1.2v7zm-1.2-.5V4c-.2 0-.3-.1-.5-.1-.9 0-1.4.7-1.4 2s.4 2 1.3 2c.3 0 .5 0 .6-.1zM88 5.9l-3.2.5c.1 1 .6 1.5 1.4 1.5.5 0 1-.1 1.3-.3l.3.8c-.4.2-1 .4-1.7.4-.8 0-1.4-.2-1.8-.7-.4-.5-.7-1.2-.7-2 0-.9.2-1.5.6-2 .4-.5 1-.7 1.6-.7.7 0 1.2.2 1.6.7.5.3.7.9.6 1.8zm-1.1-.5c0-1-.3-1.5-1-1.5-.4 0-.6.1-.8.4-.2.3-.3.8-.3 1.4l2.1-.3zM28.1 22.6h-1.9V11.1h1.9v11.5zm8.6-4.1c0 1.3-.3 2.3-.8 3-.6.8-1.5 1.2-2.6 1.2s-2-.4-2.6-1.2c-.6-.8-.8-1.8-.8-3 0-1.3.3-2.3.8-3.1.6-.8 1.5-1.2 2.6-1.2s2 .4 2.6 1.2c.5.8.8 1.8.8 3.1zm-1.9 0c0-2.1-.5-3.1-1.6-3.1s-1.6 1-1.6 3.1c0 2 .5 3 1.6 3s1.6-1 1.6-3zm8.3 1.7c0 .7-.3 1.3-.8 1.8s-1.3.7-2.1.7c-.9 0-1.7-.2-2.3-.6l.5-1.2c.4.3.9.5 1.5.5.4 0 .7-.1.9-.3.2-.2.4-.5.4-.8 0-.3-.1-.6-.3-.8-.2-.2-.5-.4-.9-.5-1.3-.5-1.9-1.3-1.9-2.3 0-.7.2-1.2.7-1.7.5-.5 1.1-.7 1.9-.7.8 0 1.6.2 2.1.6l-.5 1.1c-.4-.3-.8-.5-1.3-.5-.4 0-.7.1-.9.3-.2.2-.3.5-.3.8 0 .5.4 1 1.2 1.3 1.5.4 2.1 1.3 2.1 2.3zm13.8 2.4h-2.2l-.9-2.9h-3.7l-.9 2.9h-1.9l3.8-11.5h2l3.8 11.5zm-3.4-4.2l-1.2-4c-.2-.6-.3-1-.3-1.4-.1.3-.2.8-.3 1.4l-1.2 4h3zm11.1 4.2h-1.9v-5.9c0-.9-.5-1.4-1.5-1.4-.5 0-.9.1-1.3.2v7H58v-7.8c.8-.4 1.9-.6 3.2-.6 1.2 0 2 .3 2.6.8.5.4.7 1 .7 1.8v5.9zm8.4-.4c-.7.4-1.7.6-2.9.6s-2.2-.4-2.8-1.1c-.7-.7-1-1.8-1-3.1s.3-2.4 1-3.2c.7-.8 1.5-1.1 2.6-1.1.5 0 .9.1 1.2.2v-3.3H73v11zm-1.8-.8v-5.9c-.2-.1-.5-.1-.8-.1-1.5 0-2.2 1-2.2 3.1s.7 3.1 2 3.1c.4 0 .8-.1 1-.2zm10.3-3l-5.1.7c.2 1.5.9 2.3 2.3 2.3.8 0 1.5-.2 2.1-.5l.4 1.2c-.7.4-1.6.6-2.7.6-1.2 0-2.1-.4-2.8-1.1-.7-.7-1-1.8-1-3.2 0-1.3.3-2.4.9-3.1.6-.8 1.5-1.1 2.6-1.1s1.9.4 2.5 1.1c.6.7.9 1.8.8 3.1zm-1.7-.7c0-1.6-.5-2.3-1.6-2.3-.6 0-1 .2-1.3.7-.3.5-.5 1.2-.5 2.2l3.4-.6zm8.2 2.5c0 .7-.3 1.3-.8 1.8s-1.3.7-2.1.7c-.9 0-1.7-.2-2.3-.6l.5-1.2c.4.3.9.5 1.5.5.4 0 .7-.1.9-.3.2-.2.4-.5.4-.8 0-.3-.1-.6-.3-.8-.2-.2-.5-.4-.9-.5-1.3-.5-1.9-1.3-1.9-2.3 0-.7.2-1.2.7-1.7.5-.5 1.1-.7 1.9-.7.8 0 1.6.2 2.1.6l-.5 1.1c-.4-.3-.8-.5-1.3-.5-.4 0-.7.1-.9.3-.2.2-.3.5-.3.8 0 .5.4 1 1.2 1.3 1.4.4 2.1 1.3 2.1 2.3zM36.1 8.6h-1.2V4.9c0-.6-.3-.9-.9-.9-.3 0-.6 0-.8.1v4.5H32v-5c.5-.3 1.2-.4 2.1-.4.7 0 1.3.2 1.6.5.3.3.5.6.5 1.1v3.8zm2.5-6.8c0 .2-.1.3-.2.4-.1.1-.3.2-.5.2s-.3-.1-.5-.2c-.1-.1-.2-.3-.2-.4 0-.2.1-.3.2-.4.1-.1.3-.2.5-.2s.3.1.5.2.2.3.2.4zm0 6.8h-1.2V3.3h1.2v5.3zM44 3.3l-1.7 5.3h-1.1l-1.7-5.3h1.3l.9 3.4c.1.3.1.5.1.7 0-.2.1-.4.1-.7l.9-3.4H44zm5 2.6l-3.2.5c.1 1 .6 1.5 1.4 1.5.5 0 1-.1 1.3-.3l.3.8c-.4.2-1 .4-1.7.4-.8 0-1.4-.2-1.8-.7-.4-.5-.7-1.2-.7-2 0-.9.2-1.5.6-2 .4-.5.9-.7 1.6-.7.7 0 1.2.2 1.6.7.5.3.6.9.6 1.8zm-1.1-.4c0-1-.3-1.5-1-1.5-.4 0-.6.1-.8.4-.2.3-.3.8-.3 1.4l2.1-.3zm4.7-2.3l-.2.9c-.2-.1-.4-.1-.5-.1-.2 0-.4 0-.6.1v4.4h-1.2v-5c.6-.2 1.4-.3 2.5-.3zm3.8 3.9c0 .4-.2.8-.5 1.1-.3.3-.8.5-1.4.5-.6 0-1.1-.1-1.5-.4l.3-.8c.3.2.6.3 1 .3.2 0 .4-.1.6-.2.1-.1.2-.3.2-.5s-.1-.4-.2-.5c-.1-.1-.3-.2-.6-.3-.8-.3-1.2-.8-1.2-1.5 0-.4.2-.8.5-1.1.3-.3.7-.4 1.2-.4s1 .1 1.4.4l-.2.6c-.2-.2-.5-.3-.8-.3-.2 0-.4.1-.6.2-.1.1-.2.3-.2.5 0 .3.3.6.8.8.8.4 1.2.9 1.2 1.6zm2.3-5.3c0 .2-.1.3-.2.4-.1.1-.3.2-.5.2s-.3-.1-.5-.2c-.1-.1-.2-.3-.2-.4 0-.2.1-.3.2-.4.1-.1.3-.2.5-.2s.3.1.5.2.2.3.2.4zm0 6.8h-1.2V3.3h1.2v5.3zm5.4-.3c-.5.3-1.1.4-1.8.4-.8 0-1.4-.2-1.8-.7-.4-.5-.6-1.1-.6-2 0-.8.2-1.5.6-2 .4-.5 1-.7 1.7-.7.3 0 .6 0 .8.1V1.3h1.2v7zm-1.2-.5V4c-.2 0-.3-.1-.5-.1-.9 0-1.4.7-1.4 2s.4 2 1.3 2c.3 0 .5 0 .6-.1zm6.3.5c-.5.3-1.1.4-1.9.4-1.4 0-2.1-.5-2.1-1.6 0-.6.3-1.1.9-1.4.5-.2 1.1-.4 2.1-.5v-.3c0-.6-.3-.9-1-.9-.4 0-.9.1-1.3.3l-.3-.7c.5-.3 1.1-.4 1.8-.4 1.3 0 1.9.6 1.9 1.8v3.3zm-1.1-.4V5.7c-.6.1-1.1.2-1.3.4-.3.2-.5.5-.5 1 0 .7.4 1 1.1 1 .2-.1.5-.1.7-.2zm6.4.4c-.5.3-1.1.4-1.8.4-.8 0-1.4-.2-1.8-.7-.4-.5-.6-1.1-.6-2 0-.8.2-1.5.6-2 .4-.5 1-.7 1.7-.7.3 0 .6 0 .8.1V1.3h1.2v7zm-1.2-.5V4c-.2 0-.3-.1-.5-.1-.9 0-1.4.7-1.4 2s.4 2 1.3 2c.3 0 .5 0 .6-.1zM26.2 1.3h1.3V7c0 .6.3.9 1 .9.3 0 .6-.1.9-.2V1.3h1.3v7c-.7.2-1.4.4-2.3.4-.8 0-1.4-.2-1.7-.5-.3-.3-.5-.7-.5-1.2V1.3z"/>
  </symbol>
  <symbol viewBox="0 0 32 32" id="icono-examenes">
    <path d="M3 1h26c1.108 0 2 .892 2 2v26c0 1.108-.892 2-2 2H3c-1.108 0-2-.892-2-2V3c0-1.108.892-2 2-2z"/>
    <path d="M7 7h6v6H7zM7 19h6v6H7zM26 11H16zM26 7H16zM26 23H16zM26 19H16z"/>
    <path d="M15 18l-6 6-2-2"/>
  </symbol>
  <symbol viewBox="0 0 32 32" id="icono-problems">
    <path d="M3 1h26c1.108 0 2 .892 2 2v26c0 1.108-.892 2-2 2H3c-1.108 0-2-.892-2-2V3c0-1.108.892-2 2-2z" solid-color="#000000"/>
    <path d="M8 12c0-2.76 2.24-5 5-5s5 2.24 5 5-2.24 5-5 5M13 17h-1v4M12 23v3M23 6v15M23 23v3" solid-color="#000000"/>
  </symbol>
  <symbol viewBox="0 0 32 32" id="icono-horarios">
      <path d="M3 1h26c1.108 0 2 .892 2 2v26c0 1.108-.892 2-2 2H3c-1.108 0-2-.892-2-2V3c0-1.108.892-2 2-2zM16 1v3"/>
      <path d="M19 16a3 3 0 0 1-3 3 3 3 0 0 1-3-3 3 3 0 0 1 3-3 3 3 0 0 1 3 3zM10 10l4 4M25 7l-7 7M16 28v3M31 16h-3M4 16H1"/>
  </symbol>
  <symbol viewBox="0 0 32 32" id="icono-asesoria">
      <path d="M3 1h26c1.108 0 2 .892 2 2v26c0 1.108-.892 2-2 2H3c-1.108 0-2-.892-2-2V3c0-1.108.892-2 2-2zM9 6v20M26 23H6"/>
      <path d="M9 14c0-1.657 1.343-3 3-3s3 1.343 3 3M15 14c0 1.657 1.343 3 3 3s3-1.343 3-3M21 14c0-1.657 1.343-3 3-3M13 11v12M17 17v6M21 14v9M25 10v13"/>
  </symbol>
  <symbol viewBox="0 0 32 32" id="icono-recursos">
    <path d="M3 1h26c1.108 0 2 .892 2 2v26c0 1.108-.892 2-2 2H3c-1.108 0-2-.892-2-2V3c0-1.108.892-2 2-2z"/>
    <path d="M10 25h15v-6H10M10 19c-1.657 0-3 1.343-3 3s1.343 3 3 3M25 19V7H10M10 7c-1.657 0-3 1.343-3 3M7 22V10M11 16v-6"/>
  </symbol>
  <symbol viewBox="0 0 32 32" id="icono-tutorial">
      <path d="M3 1h26c1.108 0 2 .892 2 2v26c0 1.108-.892 2-2 2H3c-1.108 0-2-.892-2-2V3c0-1.108.892-2 2-2z"/>
      <path d="M18 23v2h-4v-2M22 13a6 6 0 0 1-6 6 6 6 0 0 1-6-6 6 6 0 0 1 6-6 6 6 0 0 1 6 6z"/>
      <path d="M20 18v4h-8v-4M18 18v-5h-4v5"/>
  </symbol>
  <symbol viewBox="0 0 32 32" id="icono-contacto">
      <path d="M3 1h26c1.108 0 2 .892 2 2v26c0 1.108-.892 2-2 2H3c-1.108 0-2-.892-2-2V3c0-1.108.892-2 2-2z"/>
      <path d="M7 26c0-4.97 4.03-9 9-9s9 4.03 9 9M21 12a5 5 0 0 1-5 5 5 5 0 0 1-5-5 5 5 0 0 1 5-5 5 5 0 0 1 5 5z"/>
  </symbol>
</svg>
