<svg xmlns="http://www.w3.org/2000/svg" xmlns:xlink="http://www.w3.org/1999/xlink">
  <symbol viewBox="0 0 356.52887 65.087952" id="pentagono-imagotipo">
    <path d="M213.287 0L61.12 49.442v160l152.167 49.44 94.04-129.44h.003-.002l.002-.005h-.004L213.286 0zM61.12 209.442H0v68.318a30.56 30.56 0 0 0 30.56 30.56 30.56 30.56 0 0 0 30.56-30.56v-68.318zm0-160a30.56 30.56 0 0 0-30.56-30.56A30.56 30.56 0 0 0 0 49.44h61.12zm812.894-5.4l-42.8 25.6 8 14.598 46-18.4-11.2-21.8zm-684.18 7.972l56.25 77.424-56.25 77.423-49.346-16.032 44.602-61.39-44.602-61.39 49.346-16.034zM406.21 71.04v138.402h29.4V162.24h15.8c31.6 0 54.4-14.6 54.4-46.6 0-30.2-21.598-44.6-56.798-44.6h-42.8zm370.15 5.8l-28.397 3.4v23.202h-15.8v20h15.8v52.798c0 23.6 11.2 36.2 33.2 36.4 9.4 0 19.8-2.798 27.6-8.198l-9.8-18c-4.4 2.4-8.2 3.6-12 3.6-7.2 0-10.602-4-10.602-14.4v-52.2h21.603l2.8-20H776.36V76.84zm238.503 10.602c-12.8 7.2-25.2 13.398-49.6 12.798-26.6 0-45.2 15-45.2 38.4 0 13.6 5.6 23 18.8 30.2-7.6 4.8-12.4 12.2-12.4 19.8 0 11.2 9.2 20.802 31.4 20.802h15.6c11.2 0 16.6 4.4 16.6 11.6 0 7.6-5.2 13-24.8 13-20.2 0-24.6-4.4-24.6-14.4h-25.4c0 21.2 10.6 33.8 49.4 33.8 35.4 0 54-13 54-34.4 0-17.6-15.4-30.4-39.4-30.4h-16.2c-10.4 0-12.2-3.4-12.2-7 0-2.8 1.6-5.4 4-7 3.8 1 7.8 1.4 12.4 1.4 27 0 43.6-15 43.6-35.6 0-13.4-6.6-21.402-19.6-27.202 12.8 0 22.8-1 30.6-4l-7-21.798zM435.61 92.24h13c17.2 0 26.8 7.2 26.8 23.4 0 18.8-10.198 25-26.398 25h-13.4v-48.4zm125.05 8c-31 0-48.2 24.8-48.2 56.8 0 33.2 17.802 55.6 51.802 55.6 16.6 0 29.8-6 40.2-14.4l-11.802-16c-9.2 6.4-16.8 9.202-25.8 9.202-13.6 0-23.2-6-25.2-26.4h66.2c.2-3 .6-7.4.6-11 0-33.8-17.8-53.802-47.8-53.802zm127.85 0c-13.6 0-23.8 6-32.4 16.6l-2.2-13.398h-24.6v106h28.4V136.24c5.8-9.4 12.2-14.798 20.4-14.798 7.2 0 11.6 3.4 11.6 15.6v72.4h28.4V132.24c0-20-11-32-29.6-32zm169.902 0c-12 0-26 2.6-39.2 7.8l6.4 19c10.8-3.6 21-5.598 28-5.598 13.4 0 19 4.198 19 17.398v5.2h-12.2c-31.4 0-48.8 12.6-48.8 35.8 0 19.2 13.202 32.8 34.402 32.8 12.6 0 24.2-4.4 31.8-16 4.4 10.6 12.4 14.6 24.4 15.6l6-18.798c-5.2-1.8-7.802-4.8-7.802-13.4V137.24c0-24-12.6-37-42-37zm218.3 0c-32 0-51 22.402-51 56.202 0 35.2 19.202 56.2 50.802 56.2 31.8 0 50.8-22.6 50.8-56.2 0-35.2-19-56.202-50.6-56.202zm131.655 0c-13.6 0-23.8 6-32.4 16.6l-2.2-13.398h-24.6v106h28.4V136.24c5.8-9.4 12.2-14.798 20.4-14.798 7.2 0 11.6 3.4 11.6 15.6v72.4h28.4V132.24c0-20-11-32-29.6-32zm101.45 0c-32 0-51 22.402-51 56.202 0 35.2 19.202 56.2 50.802 56.2 31.8 0 50.798-22.6 50.798-56.2 0-35.2-19-56.202-50.6-56.202zm-343.954 19c11.8 0 17.6 6 17.6 18.6 0 13-6 19.8-17.4 19.8-10.8 0-17.6-7.2-17.6-19.4 0-11.6 6.6-19 17.4-19zm-404.6.4c13.6 0 19 10.4 19 26.4v1.2H541.66c1.4-20 8.402-27.6 19.602-27.6zm515.45 1.802c13.8 0 21 10.6 21 35 0 24.2-7.2 35-21.2 35s-21.2-10.6-21.2-35c0-24.2 7.2-35 21.4-35zm233.105 0c13.8 0 21 10.6 21 35 0 24.2-7.2 35-21.2 35s-21.2-10.6-21.2-35c0-24.2 7.2-35 21.4-35zM863.213 160.24h9.4v20.202c-4.4 7.6-10.6 11.798-18.8 11.798-8.8 0-13.6-5.398-13.6-14.798 0-11.6 7.6-17.202 23-17.202z"/>
  </symbol>
  <symbol viewBox="0 0 54.97266 62.28906" id="pentagono-isotipo">
    <path d="M213.287 0L61.12 49.442v160l152.167 49.44 94.04-129.44h.003-.002l.002-.005h-.004L213.286 0zM61.12 209.442H0v68.318c0 16.878 13.682 30.56 30.56 30.56s30.56-13.683 30.56-30.56zm0-160c0-16.878-13.682-30.56-30.56-30.56S0 32.56 0 49.44zm128.714 2.572l56.25 77.424-56.25 77.423-49.346-16.032 44.602-61.39-44.602-61.39z"/>
  </symbol>
  <symbol viewBox="0 0 88.025002 26.5" id="uandes-imagotipo">
    <path d="M0 1.3S6 0 11 0s11.3 1.3 11.3 1.3v19.3c0 1.6-1 2.4-1.3 2.7-.8.6-4.2 3.2-9.9 3.2-5.3 0-8.6-2.3-9.9-3.2-.5-.5-1.2-1.4-1.2-2.7V1.3z" clip-rule="evenodd" fill="#fff100" fill-rule="evenodd"/>
    <path d="M20.7 23.6c-4.6 3-9.3 2.8-9.3 2.8s-.1-.6-.1-1.6c.1-1 .6-.7 1-1.6.1-.3.3-.5.5-1.2 0 0-.3-5-.3-7.1 0-1.1-.3-3-.5-4.9-.1-1.1-.5-2-.6-3-.2-1.5-.5-3.2-.5-3.2-.2.5-.5 2.3-.7 4.3-.1 1-.3 2-.4 3-.3 2-.9 7.5-1 7.8-.1.4-.2-.1-.2-.1s.4-5.7.5-8.2c.1-1.2.1-2.6.3-3.9.1-1 .3-1.9.5-2.7 0 0 .7-2 .9-2 .2 0 1 1.2 1.2 2.4.6 2.6.9 2.9 1.4 5.6.4 2.6.8 4.7.8 5.1.2 1.3.1 5.3-.2 6.8-.1.4-.1.6-.4.9-.7.7-1.1 1.5-1.1 2s-.1.5 0 .8c0 0 .9 1.3 5.9-1.7 0 0 1.6-.8 1.6-2.6V2.7S15 1 11.2 1C7.4 1 2.6 2.7 2.6 2.7v18.2c0 1.1.2 3.2 1.8 3.9 0 0-4.3-1.5-4.3-4V1.2S6.6 0 11.2 0s11.2 1.2 11.2 1.2V21c-.1 1.7-1.7 2.6-1.7 2.6zM82.6 8.3c-.5.3-1.1.4-1.8.4-.8 0-1.4-.2-1.8-.7-.4-.5-.6-1.1-.6-2 0-.8.2-1.5.6-2 .4-.5 1-.7 1.7-.7.3 0 .6 0 .8.1V1.3h1.2v7zm-1.2-.5V4c-.2 0-.3-.1-.5-.1-.9 0-1.4.7-1.4 2s.4 2 1.3 2c.3 0 .5 0 .6-.1zM88 5.9l-3.2.5c.1 1 .6 1.5 1.4 1.5.5 0 1-.1 1.3-.3l.3.8c-.4.2-1 .4-1.7.4-.8 0-1.4-.2-1.8-.7-.4-.5-.7-1.2-.7-2 0-.9.2-1.5.6-2 .4-.5 1-.7 1.6-.7.7 0 1.2.2 1.6.7.5.3.7.9.6 1.8zm-1.1-.5c0-1-.3-1.5-1-1.5-.4 0-.6.1-.8.4-.2.3-.3.8-.3 1.4l2.1-.3zM28.1 22.6h-1.9V11.1h1.9v11.5zm8.6-4.1c0 1.3-.3 2.3-.8 3-.6.8-1.5 1.2-2.6 1.2s-2-.4-2.6-1.2c-.6-.8-.8-1.8-.8-3 0-1.3.3-2.3.8-3.1.6-.8 1.5-1.2 2.6-1.2s2 .4 2.6 1.2c.5.8.8 1.8.8 3.1zm-1.9 0c0-2.1-.5-3.1-1.6-3.1s-1.6 1-1.6 3.1c0 2 .5 3 1.6 3s1.6-1 1.6-3zm8.3 1.7c0 .7-.3 1.3-.8 1.8s-1.3.7-2.1.7c-.9 0-1.7-.2-2.3-.6l.5-1.2c.4.3.9.5 1.5.5.4 0 .7-.1.9-.3.2-.2.4-.5.4-.8 0-.3-.1-.6-.3-.8-.2-.2-.5-.4-.9-.5-1.3-.5-1.9-1.3-1.9-2.3 0-.7.2-1.2.7-1.7.5-.5 1.1-.7 1.9-.7.8 0 1.6.2 2.1.6l-.5 1.1c-.4-.3-.8-.5-1.3-.5-.4 0-.7.1-.9.3-.2.2-.3.5-.3.8 0 .5.4 1 1.2 1.3 1.5.4 2.1 1.3 2.1 2.3zm13.8 2.4h-2.2l-.9-2.9h-3.7l-.9 2.9h-1.9l3.8-11.5h2l3.8 11.5zm-3.4-4.2l-1.2-4c-.2-.6-.3-1-.3-1.4-.1.3-.2.8-.3 1.4l-1.2 4h3zm11.1 4.2h-1.9v-5.9c0-.9-.5-1.4-1.5-1.4-.5 0-.9.1-1.3.2v7H58v-7.8c.8-.4 1.9-.6 3.2-.6 1.2 0 2 .3 2.6.8.5.4.7 1 .7 1.8v5.9zm8.4-.4c-.7.4-1.7.6-2.9.6s-2.2-.4-2.8-1.1c-.7-.7-1-1.8-1-3.1s.3-2.4 1-3.2c.7-.8 1.5-1.1 2.6-1.1.5 0 .9.1 1.2.2v-3.3H73v11zm-1.8-.8v-5.9c-.2-.1-.5-.1-.8-.1-1.5 0-2.2 1-2.2 3.1s.7 3.1 2 3.1c.4 0 .8-.1 1-.2zm10.3-3l-5.1.7c.2 1.5.9 2.3 2.3 2.3.8 0 1.5-.2 2.1-.5l.4 1.2c-.7.4-1.6.6-2.7.6-1.2 0-2.1-.4-2.8-1.1-.7-.7-1-1.8-1-3.2 0-1.3.3-2.4.9-3.1.6-.8 1.5-1.1 2.6-1.1s1.9.4 2.5 1.1c.6.7.9 1.8.8 3.1zm-1.7-.7c0-1.6-.5-2.3-1.6-2.3-.6 0-1 .2-1.3.7-.3.5-.5 1.2-.5 2.2l3.4-.6zm8.2 2.5c0 .7-.3 1.3-.8 1.8s-1.3.7-2.1.7c-.9 0-1.7-.2-2.3-.6l.5-1.2c.4.3.9.5 1.5.5.4 0 .7-.1.9-.3.2-.2.4-.5.4-.8 0-.3-.1-.6-.3-.8-.2-.2-.5-.4-.9-.5-1.3-.5-1.9-1.3-1.9-2.3 0-.7.2-1.2.7-1.7.5-.5 1.1-.7 1.9-.7.8 0 1.6.2 2.1.6l-.5 1.1c-.4-.3-.8-.5-1.3-.5-.4 0-.7.1-.9.3-.2.2-.3.5-.3.8 0 .5.4 1 1.2 1.3 1.4.4 2.1 1.3 2.1 2.3zM36.1 8.6h-1.2V4.9c0-.6-.3-.9-.9-.9-.3 0-.6 0-.8.1v4.5H32v-5c.5-.3 1.2-.4 2.1-.4.7 0 1.3.2 1.6.5.3.3.5.6.5 1.1v3.8zm2.5-6.8c0 .2-.1.3-.2.4-.1.1-.3.2-.5.2s-.3-.1-.5-.2c-.1-.1-.2-.3-.2-.4 0-.2.1-.3.2-.4.1-.1.3-.2.5-.2s.3.1.5.2.2.3.2.4zm0 6.8h-1.2V3.3h1.2v5.3zM44 3.3l-1.7 5.3h-1.1l-1.7-5.3h1.3l.9 3.4c.1.3.1.5.1.7 0-.2.1-.4.1-.7l.9-3.4H44zm5 2.6l-3.2.5c.1 1 .6 1.5 1.4 1.5.5 0 1-.1 1.3-.3l.3.8c-.4.2-1 .4-1.7.4-.8 0-1.4-.2-1.8-.7-.4-.5-.7-1.2-.7-2 0-.9.2-1.5.6-2 .4-.5.9-.7 1.6-.7.7 0 1.2.2 1.6.7.5.3.6.9.6 1.8zm-1.1-.4c0-1-.3-1.5-1-1.5-.4 0-.6.1-.8.4-.2.3-.3.8-.3 1.4l2.1-.3zm4.7-2.3l-.2.9c-.2-.1-.4-.1-.5-.1-.2 0-.4 0-.6.1v4.4h-1.2v-5c.6-.2 1.4-.3 2.5-.3zm3.8 3.9c0 .4-.2.8-.5 1.1-.3.3-.8.5-1.4.5-.6 0-1.1-.1-1.5-.4l.3-.8c.3.2.6.3 1 .3.2 0 .4-.1.6-.2.1-.1.2-.3.2-.5s-.1-.4-.2-.5c-.1-.1-.3-.2-.6-.3-.8-.3-1.2-.8-1.2-1.5 0-.4.2-.8.5-1.1.3-.3.7-.4 1.2-.4s1 .1 1.4.4l-.2.6c-.2-.2-.5-.3-.8-.3-.2 0-.4.1-.6.2-.1.1-.2.3-.2.5 0 .3.3.6.8.8.8.4 1.2.9 1.2 1.6zm2.3-5.3c0 .2-.1.3-.2.4-.1.1-.3.2-.5.2s-.3-.1-.5-.2c-.1-.1-.2-.3-.2-.4 0-.2.1-.3.2-.4.1-.1.3-.2.5-.2s.3.1.5.2.2.3.2.4zm0 6.8h-1.2V3.3h1.2v5.3zm5.4-.3c-.5.3-1.1.4-1.8.4-.8 0-1.4-.2-1.8-.7-.4-.5-.6-1.1-.6-2 0-.8.2-1.5.6-2 .4-.5 1-.7 1.7-.7.3 0 .6 0 .8.1V1.3h1.2v7zm-1.2-.5V4c-.2 0-.3-.1-.5-.1-.9 0-1.4.7-1.4 2s.4 2 1.3 2c.3 0 .5 0 .6-.1zm6.3.5c-.5.3-1.1.4-1.9.4-1.4 0-2.1-.5-2.1-1.6 0-.6.3-1.1.9-1.4.5-.2 1.1-.4 2.1-.5v-.3c0-.6-.3-.9-1-.9-.4 0-.9.1-1.3.3l-.3-.7c.5-.3 1.1-.4 1.8-.4 1.3 0 1.9.6 1.9 1.8v3.3zm-1.1-.4V5.7c-.6.1-1.1.2-1.3.4-.3.2-.5.5-.5 1 0 .7.4 1 1.1 1 .2-.1.5-.1.7-.2zm6.4.4c-.5.3-1.1.4-1.8.4-.8 0-1.4-.2-1.8-.7-.4-.5-.6-1.1-.6-2 0-.8.2-1.5.6-2 .4-.5 1-.7 1.7-.7.3 0 .6 0 .8.1V1.3h1.2v7zm-1.2-.5V4c-.2 0-.3-.1-.5-.1-.9 0-1.4.7-1.4 2s.4 2 1.3 2c.3 0 .5 0 .6-.1zM26.2 1.3h1.3V7c0 .6.3.9 1 .9.3 0 .6-.1.9-.2V1.3h1.3v7c-.7.2-1.4.4-2.3.4-.8 0-1.4-.2-1.7-.5-.3-.3-.5-.7-.5-1.2V1.3z"/>
  </symbol>
  <symbol viewBox="0 0 32 32" id="icono-examenes">
    <path d="M3 1h26c1.108 0 2 .892 2 2v26c0 1.108-.892 2-2 2H3c-1.108 0-2-.892-2-2V3c0-1.108.892-2 2-2z"/>
    <path d="M7 7h6v6H7zM7 19h6v6H7zM26 11H16zM26 7H16zM26 23H16zM26 19H16z"/>
    <path d="M15 18l-6 6-2-2"/>
  </symbol>
  <symbol viewBox="0 0 32 32" id="icono-problems">
    <path d="M3 1h26c1.108 0 2 .892 2 2v26c0 1.108-.892 2-2 2H3c-1.108 0-2-.892-2-2V3c0-1.108.892-2 2-2z" solid-color="#000000"/>
    <path d="M8 12c0-2.76 2.24-5 5-5s5 2.24 5 5-2.24 5-5 5M13 17h-1v4M12 23v3M23 6v15M23 23v3" solid-color="#000000"/>
  </symbol>
  <symbol viewBox="0 0 32 32" id="icono-horarios">
      <path d="M3 1h26c1.108 0 2 .892 2 2v26c0 1.108-.892 2-2 2H3c-1.108 0-2-.892-2-2V3c0-1.108.892-2 2-2zM16 1v3"/>
      <path d="M19 16a3 3 0 0 1-3 3 3 3 0 0 1-3-3 3 3 0 0 1 3-3 3 3 0 0 1 3 3zM10 10l4 4M25 7l-7 7M16 28v3M31 16h-3M4 16H1"/>
  </symbol>
  <symbol viewBox="0 0 32 32" id="icono-asesoria">
      <path d="M3 1h26c1.108 0 2 .892 2 2v26c0 1.108-.892 2-2 2H3c-1.108 0-2-.892-2-2V3c0-1.108.892-2 2-2zM9 6v20M26 23H6"/>
      <path d="M9 14c0-1.657 1.343-3 3-3s3 1.343 3 3M15 14c0 1.657 1.343 3 3 3s3-1.343 3-3M21 14c0-1.657 1.343-3 3-3M13 11v12M17 17v6M21 14v9M25 10v13"/>
  </symbol>
  <symbol viewBox="0 0 32 32" id="icono-recursos">
    <path d="M3 1h26c1.108 0 2 .892 2 2v26c0 1.108-.892 2-2 2H3c-1.108 0-2-.892-2-2V3c0-1.108.892-2 2-2z"/>
    <path d="M10 25h15v-6H10M10 19c-1.657 0-3 1.343-3 3s1.343 3 3 3M25 19V7H10M10 7c-1.657 0-3 1.343-3 3M7 22V10M11 16v-6"/>
  </symbol>
  <symbol viewBox="0 0 32 32" id="icono-tutorial">
      <path d="M3 1h26c1.108 0 2 .892 2 2v26c0 1.108-.892 2-2 2H3c-1.108 0-2-.892-2-2V3c0-1.108.892-2 2-2z"/>
      <path d="M18 23v2h-4v-2M22 13a6 6 0 0 1-6 6 6 6 0 0 1-6-6 6 6 0 0 1 6-6 6 6 0 0 1 6 6z"/>
      <path d="M20 18v4h-8v-4M18 18v-5h-4v5"/>
  </symbol>
  <symbol viewBox="0 0 32 32" id="icono-contacto">
      <path d="M3 1h26c1.108 0 2 .892 2 2v26c0 1.108-.892 2-2 2H3c-1.108 0-2-.892-2-2V3c0-1.108.892-2 2-2z"/>
      <path d="M7 26c0-4.97 4.03-9 9-9s9 4.03 9 9M21 12a5 5 0 0 1-5 5 5 5 0 0 1-5-5 5 5 0 0 1 5-5 5 5 0 0 1 5 5z"/>
  </symbol>
	
	<view id="pentagono-isotipo" viewBox="0 0 54.97266 62.28906"/>
	<use xlink:href="#pentagono-isotipo" width="54.97266" height="62.28906" x="0" y="0" id="pentagono-isotipo"></use>
</svg>
