<svg xmlns="http://www.w3.org/2000/svg" >
  <symbol viewBox="0 0 32 32" id="icon-ils">
    <path
       style="fill:none;fill-rule:evenodd;stroke:#56505a;stroke-width:1;stroke-linecap:butt;stroke-linejoin:miter;stroke-miterlimit:4;stroke-dasharray:none;stroke-opacity:1"
       d="m 27,20.5 -11,0"
       id="path14748" />
    <path
       id="path14750"
       d="m 21.5,8 0,5"
       style="fill:none;fill-rule:evenodd;stroke:#56505a;stroke-width:1;stroke-linecap:butt;stroke-linejoin:miter;stroke-miterlimit:4;stroke-dasharray:none;stroke-opacity:1" />
    <path
       id="path14752"
       d="m 19.5,14.5 c 0,-1.1046 0.89543,-2 2,-2 1.10457,0 2,0.8954 2,2 0,1.1046 -0.89543,2 -2,2 -1.10457,0 -2,-0.8954 -2,-2 z"
       style="opacity:1;fill:none;stroke:#56505a;stroke-width:1;stroke-miterlimit:4;stroke-dasharray:none;stroke-opacity:1" />
    <path
       id="path14754"
       style="fill:none;fill-rule:evenodd;stroke:#56505a;stroke-width:1;stroke-linecap:butt;stroke-linejoin:miter;stroke-miterlimit:4;stroke-dasharray:none;stroke-opacity:1"
       d="m 16.5,21 0,-8.5 4,-4 2,0 4,4 0,8.5" />
    <path
       style="fill:none;fill-rule:evenodd;stroke:#56505a;stroke-width:1;stroke-linecap:butt;stroke-linejoin:miter;stroke-miterlimit:4;stroke-dasharray:none;stroke-opacity:1"
       d="m 11.5,21 0,-4"
       id="path14756" />
    <path
       id="path14758"
       d="m 14.5,21 0,-4"
       style="fill:none;fill-rule:evenodd;stroke:#56505a;stroke-width:1;stroke-linecap:butt;stroke-linejoin:miter;stroke-miterlimit:4;stroke-dasharray:none;stroke-opacity:1" />
    <path
       style="fill:none;fill-rule:evenodd;stroke:#56505a;stroke-width:1;stroke-linecap:butt;stroke-linejoin:miter;stroke-miterlimit:4;stroke-dasharray:none;stroke-opacity:1"
       d="m 11,17.5 4,0"
       id="path14760" />
    <path
       id="path14762"
       d="m 11,20.5 4,0"
       style="fill:none;fill-rule:evenodd;stroke:#56505a;stroke-width:1;stroke-linecap:butt;stroke-linejoin:miter;stroke-miterlimit:4;stroke-dasharray:none;stroke-opacity:1" />
    <path
       id="path14764"
       d="M 12.5,14 C 12.5,9.8579 15.85786,6.5 20,6.5"
       style="opacity:1;fill:none;stroke:#56505a;stroke-width:1;stroke-miterlimit:4;stroke-dasharray:none;stroke-opacity:1" />
    <path
       style="fill:none;fill-rule:evenodd;stroke:#56505a;stroke-width:1;stroke-linecap:butt;stroke-linejoin:miter;stroke-miterlimit:4;stroke-dasharray:none;stroke-opacity:1"
       d="m 12.5,14 0,4"
       id="path14766" />
    <path
       id="path14768"
       d="M 14.5,7 A 1.5,1.5 0 0 1 13,8.5 1.5,1.5 0 0 1 11.5,7 1.5,1.5 0 0 1 13,5.5 1.5,1.5 0 0 1 14.5,7 Z"
       style="opacity:1;fill:none;stroke:#56505a;stroke-width:1;stroke-miterlimit:4;stroke-dasharray:none;stroke-opacity:1" />
    <path
       id="path14770"
       d="m 21,6.5 -7,0"
       style="fill:none;fill-rule:evenodd;stroke:#56505a;stroke-width:1;stroke-linecap:butt;stroke-linejoin:miter;stroke-miterlimit:4;stroke-dasharray:none;stroke-opacity:1" />
    <path
       id="path14772"
       d="m 20.5,9 0,-4"
       style="fill:none;fill-rule:evenodd;stroke:#56505a;stroke-width:1;stroke-linecap:butt;stroke-linejoin:miter;stroke-miterlimit:4;stroke-dasharray:none;stroke-opacity:1" />
    <path
       style="fill:none;fill-rule:evenodd;stroke:#56505a;stroke-width:1;stroke-linecap:butt;stroke-linejoin:miter;stroke-miterlimit:4;stroke-dasharray:none;stroke-opacity:1"
       d="m 23.5,9 0,-4"
       id="path14774" />
    <path
       id="path14776"
       d="m 20,5.5 4,0"
       style="fill:none;fill-rule:evenodd;stroke:#56505a;stroke-width:1;stroke-linecap:butt;stroke-linejoin:miter;stroke-miterlimit:4;stroke-dasharray:none;stroke-opacity:1" />
    <path
       style="fill:none;fill-rule:evenodd;stroke:#56505a;stroke-width:1;stroke-linecap:butt;stroke-linejoin:miter;stroke-miterlimit:4;stroke-dasharray:none;stroke-opacity:1"
       d="m 20,8.5 4,0"
       id="path14778" />
    <path
       style="fill:none;fill-rule:evenodd;stroke:#56505a;stroke-width:2;stroke-linecap:round;stroke-linejoin:miter;stroke-miterlimit:4;stroke-dasharray:none;stroke-opacity:1"
       d="m 5,31 26,0"
       id="path14780" />
    <path
       style="fill:none;fill-rule:evenodd;stroke:#56505a;stroke-width:2;stroke-linecap:round;stroke-linejoin:miter;stroke-miterlimit:4;stroke-dasharray:none;stroke-opacity:1"
       d="M 5,1 31,1"
       id="path14782" />
    <path
       style="fill:none;fill-rule:evenodd;stroke:#56505a;stroke-width:2;stroke-linecap:round;stroke-linejoin:miter;stroke-miterlimit:4;stroke-dasharray:none;stroke-opacity:1"
       d="M 3,29 3,3"
       id="path14784" />
    <path
       style="fill:none;fill-rule:evenodd;stroke:#56505a;stroke-width:2;stroke-linecap:round;stroke-linejoin:miter;stroke-miterlimit:4;stroke-dasharray:none;stroke-opacity:1"
       d="M 31,26 31,1"
       id="path14786" />
    <path
       id="path14788"
       d="M 3,3 C 3,1.8955 3.89543,1 5,1"
       style="opacity:1;fill:none;stroke:#56505a;stroke-width:2;stroke-miterlimit:4;stroke-dasharray:none;stroke-opacity:1" />
    <path
       style="opacity:1;fill:none;stroke:#56505a;stroke-width:2;stroke-miterlimit:4;stroke-dasharray:none;stroke-opacity:1"
       d="M 5,31 C 3.89543,31 3,30.1046 3,29"
       id="path14790" />
    <path
       style="opacity:1;fill:none;stroke:#56505a;stroke-width:2;stroke-miterlimit:4;stroke-dasharray:none;stroke-opacity:1"
       d="M 3,28 C 3,26.8954 3.89543,26 5,26"
       id="path14792" />
    <path
       id="path14794"
       d="m 5,26 26,0"
       style="fill:none;fill-rule:evenodd;stroke:#56505a;stroke-width:2;stroke-linecap:round;stroke-linejoin:miter;stroke-miterlimit:4;stroke-dasharray:none;stroke-opacity:1" />
    <path
       style="opacity:1;fill:none;stroke:#56505a;stroke-width:1;stroke-miterlimit:4;stroke-dasharray:none;stroke-opacity:1"
       d="m 4,24.5 c -1.933,0 -3.5,-1.567 -3.5,-3.5 0,-1.933 1.567,-3.5 3.5,-3.5 1.933,0 3.5,1.567 3.5,3.5"
       id="path14796" />
    <path
       id="path14798"
       d="m 4,17.5 c -1.933,0 -3.5,-1.567 -3.5,-3.5 0,-1.933 1.567,-3.5 3.5,-3.5 1.933,0 3.5,1.567 3.5,3.5"
       style="opacity:1;fill:none;stroke:#56505a;stroke-width:1;stroke-miterlimit:4;stroke-dasharray:none;stroke-opacity:1" />
    <path
       style="opacity:1;fill:none;stroke:#56505a;stroke-width:1;stroke-miterlimit:4;stroke-dasharray:none;stroke-opacity:1"
       d="M 4,10.5 C 2.067,10.5 0.5,8.933 0.5,7 0.5,5.067 2.067,3.5 4,3.5 5.933,3.5 7.5,5.067 7.5,7"
       id="path14800" />
    <path
       style="fill:none;fill-rule:evenodd;stroke:#56505a;stroke-width:1;stroke-linecap:butt;stroke-linejoin:miter;stroke-miterlimit:4;stroke-dasharray:none;stroke-opacity:1"
       d="m 5,28.5 25,0"
       id="path14802" />
    <path
       id="path14804"
       d="m 31,31 c -1.10457,0 -2,-0.8954 -2,-2"
       style="opacity:1;fill:none;stroke:#56505a;stroke-width:2;stroke-miterlimit:4;stroke-dasharray:none;stroke-opacity:1" />
    <path
       id="path14806"
       d="m 29,28 c 0,-1.1046 0.89543,-2 2,-2"
       style="opacity:1;fill:none;stroke:#56505a;stroke-width:2;stroke-miterlimit:4;stroke-dasharray:none;stroke-opacity:1" />
    <path
       style="opacity:1;fill:none;stroke:#56505a;stroke-width:1;stroke-miterlimit:4;stroke-dasharray:none;stroke-opacity:1"
       d="m 5.5,20.5 c 0,-1.1046 0.89543,-2 2,-2 1.10457,0 2,0.8954 2,2 0,1.1046 -0.89543,2 -2,2 -1.10457,0 -2,-0.8954 -2,-2 z"
       id="path14808" />
    <path
       id="path14810"
       d="m 5.5,13.5 c 0,-1.1046 0.89543,-2 2,-2 1.10457,0 2,0.8954 2,2 0,1.1046 -0.89543,2 -2,2 -1.10457,0 -2,-0.8954 -2,-2 z"
       style="opacity:1;fill:none;stroke:#56505a;stroke-width:1;stroke-miterlimit:4;stroke-dasharray:none;stroke-opacity:1" />
    <path
       style="opacity:1;fill:none;stroke:#56505a;stroke-width:1;stroke-miterlimit:4;stroke-dasharray:none;stroke-opacity:1"
       d="m 5.5,6.5 c 0,-1.1046 0.89543,-2 2,-2 1.10457,0 2,0.8954 2,2 0,1.1046 -0.89543,2 -2,2 -1.10457,0 -2,-0.8954 -2,-2 z"
       id="path14812" />
  </symbol>
</svg>
