<svg xmlns="http://www.w3.org/2000/svg" >
  <symbol viewBox="0 0 32 32" id="icon-men">
    <path
       style="fill:none;fill-rule:evenodd;stroke:#56505a;stroke-width:2;stroke-linecap:round;stroke-linejoin:miter;stroke-miterlimit:4;stroke-dasharray:none;stroke-opacity:1"
       d="M 3,1 29,1"
       id="path8602" />
    <path
       style="fill:none;fill-rule:evenodd;stroke:#56505a;stroke-width:2;stroke-linecap:round;stroke-linejoin:miter;stroke-miterlimit:4;stroke-dasharray:none;stroke-opacity:1"
       d="M 1,29 1,3"
       id="path8604" />
    <path
       style="fill:none;fill-rule:evenodd;stroke:#56505a;stroke-width:2;stroke-linecap:round;stroke-linejoin:miter;stroke-miterlimit:4;stroke-dasharray:none;stroke-opacity:1"
       d="M 31,29 31,3"
       id="path8606" />
    <path
       id="path8608"
       d="M 1,3 C 1,1.8955 1.89543,1 3,1"
       style="opacity:1;fill:none;stroke:#56505a;stroke-width:2;stroke-miterlimit:4;stroke-dasharray:none;stroke-opacity:1" />
    <path
       style="opacity:1;fill:none;stroke:#56505a;stroke-width:2;stroke-miterlimit:4;stroke-dasharray:none;stroke-opacity:1"
       d="m 29,1 c 1.10457,0 2,0.8955 2,2"
       id="path8610" />
    <path
       style="opacity:1;fill:none;stroke:#56505a;stroke-width:2;stroke-miterlimit:4;stroke-dasharray:none;stroke-opacity:1"
       d="M 3,31 C 1.89543,31 1,30.1046 1,29"
       id="path8612" />
    <path
       id="path8614"
       d="m 31,29 c 0,1.1046 -0.89543,2 -2,2"
       style="opacity:1;fill:none;stroke:#56505a;stroke-width:2;stroke-miterlimit:4;stroke-dasharray:none;stroke-opacity:1" />
    <path
       id="path8616"
       d="m 3,31 26,0"
       style="fill:none;fill-rule:evenodd;stroke:#56505a;stroke-width:2;stroke-linecap:round;stroke-linejoin:miter;stroke-miterlimit:4;stroke-dasharray:none;stroke-opacity:1" />
    <path
       style="fill:none;fill-rule:evenodd;stroke:#56505a;stroke-width:1;stroke-linecap:butt;stroke-linejoin:miter;stroke-miterlimit:4;stroke-dasharray:none;stroke-opacity:1"
       d="m 5.5,9.5 0,-1"
       id="path8618" />
    <path
       style="fill:none;fill-rule:evenodd;stroke:#56505a;stroke-width:1;stroke-linecap:butt;stroke-linejoin:miter;stroke-miterlimit:4;stroke-dasharray:none;stroke-opacity:1"
       d="m 26.5,9.5 0,-1"
       id="path8620" />
    <path
       id="path8622"
       d="m 6.5,7.5 19,0"
       style="fill:none;fill-rule:evenodd;stroke:#56505a;stroke-width:1;stroke-linecap:butt;stroke-linejoin:miter;stroke-miterlimit:4;stroke-dasharray:none;stroke-opacity:1" />
    <path
       id="path8624"
       d="m 5.5,8.5 c 0,-0.5523 0.44772,-1 1,-1"
       style="opacity:1;fill:none;stroke:#56505a;stroke-width:1;stroke-miterlimit:4;stroke-dasharray:none;stroke-opacity:1" />
    <path
       style="opacity:1;fill:none;stroke:#56505a;stroke-width:1;stroke-miterlimit:4;stroke-dasharray:none;stroke-opacity:1"
       d="m 25.5,7.5 c 0.55228,0 1,0.4477 1,1"
       id="path8626" />
    <path
       style="opacity:1;fill:none;stroke:#56505a;stroke-width:1;stroke-miterlimit:4;stroke-dasharray:none;stroke-opacity:1"
       d="m 6.5,10.5 c -0.55228,0 -1,-0.4477 -1,-1"
       id="path8628" />
    <path
       id="path8630"
       d="m 26.5,9.5 c 0,0.5523 -0.44772,1 -1,1"
       style="opacity:1;fill:none;stroke:#56505a;stroke-width:1;stroke-miterlimit:4;stroke-dasharray:none;stroke-opacity:1" />
    <path
       style="fill:none;fill-rule:evenodd;stroke:#56505a;stroke-width:1;stroke-linecap:butt;stroke-linejoin:miter;stroke-miterlimit:4;stroke-dasharray:none;stroke-opacity:1"
       d="m 6.5,10.5 19,0"
       id="path8632" />
    <path
       id="path9176"
       d="m 5.5,23.5 0,-1"
       style="fill:none;fill-rule:evenodd;stroke:#56505a;stroke-width:1;stroke-linecap:butt;stroke-linejoin:miter;stroke-miterlimit:4;stroke-dasharray:none;stroke-opacity:1" />
    <path
       id="path9178"
       d="m 26.5,23.5 0,-1"
       style="fill:none;fill-rule:evenodd;stroke:#56505a;stroke-width:1;stroke-linecap:butt;stroke-linejoin:miter;stroke-miterlimit:4;stroke-dasharray:none;stroke-opacity:1" />
    <path
       style="fill:none;fill-rule:evenodd;stroke:#56505a;stroke-width:1;stroke-linecap:butt;stroke-linejoin:miter;stroke-miterlimit:4;stroke-dasharray:none;stroke-opacity:1"
       d="m 6.5,21.5 19,0"
       id="path9180" />
    <path
       style="opacity:1;fill:none;stroke:#56505a;stroke-width:1;stroke-miterlimit:4;stroke-dasharray:none;stroke-opacity:1"
       d="m 5.5,22.5 c 0,-0.5523 0.44772,-1 1,-1"
       id="path9182" />
    <path
       id="path9184"
       d="m 25.5,21.5 c 0.55228,0 1,0.4477 1,1"
       style="opacity:1;fill:none;stroke:#56505a;stroke-width:1;stroke-miterlimit:4;stroke-dasharray:none;stroke-opacity:1" />
    <path
       id="path9186"
       d="m 6.5,24.5 c -0.55228,0 -1,-0.4477 -1,-1"
       style="opacity:1;fill:none;stroke:#56505a;stroke-width:1;stroke-miterlimit:4;stroke-dasharray:none;stroke-opacity:1" />
    <path
       style="opacity:1;fill:none;stroke:#56505a;stroke-width:1;stroke-miterlimit:4;stroke-dasharray:none;stroke-opacity:1"
       d="m 26.5,23.5 c 0,0.5523 -0.44772,1 -1,1"
       id="path9188" />
    <path
       id="path9190"
       d="m 6.5,24.5 19,0"
       style="fill:none;fill-rule:evenodd;stroke:#56505a;stroke-width:1;stroke-linecap:butt;stroke-linejoin:miter;stroke-miterlimit:4;stroke-dasharray:none;stroke-opacity:1" />
    <path
       style="fill:none;fill-rule:evenodd;stroke:#56505a;stroke-width:1;stroke-linecap:butt;stroke-linejoin:miter;stroke-miterlimit:4;stroke-dasharray:none;stroke-opacity:1"
       d="m 5.5,16.5 0,-1"
       id="path9192" />
    <path
       style="fill:none;fill-rule:evenodd;stroke:#56505a;stroke-width:1;stroke-linecap:butt;stroke-linejoin:miter;stroke-miterlimit:4;stroke-dasharray:none;stroke-opacity:1"
       d="m 26.5,16.5 0,-1"
       id="path9194" />
    <path
       id="path9196"
       d="m 6.5,14.5 19,0"
       style="fill:none;fill-rule:evenodd;stroke:#56505a;stroke-width:1;stroke-linecap:butt;stroke-linejoin:miter;stroke-miterlimit:4;stroke-dasharray:none;stroke-opacity:1" />
    <path
       id="path9198"
       d="m 5.5,15.5 c 0,-0.5523 0.44772,-1 1,-1"
       style="opacity:1;fill:none;stroke:#56505a;stroke-width:1;stroke-miterlimit:4;stroke-dasharray:none;stroke-opacity:1" />
    <path
       style="opacity:1;fill:none;stroke:#56505a;stroke-width:1;stroke-miterlimit:4;stroke-dasharray:none;stroke-opacity:1"
       d="m 25.5,14.5 c 0.55228,0 1,0.4477 1,1"
       id="path9200" />
    <path
       style="opacity:1;fill:none;stroke:#56505a;stroke-width:1;stroke-miterlimit:4;stroke-dasharray:none;stroke-opacity:1"
       d="m 6.5,17.5 c -0.55228,0 -1,-0.4477 -1,-1"
       id="path9202" />
    <path
       id="path9204"
       d="m 26.5,16.5 c 0,0.5523 -0.44772,1 -1,1"
       style="opacity:1;fill:none;stroke:#56505a;stroke-width:1;stroke-miterlimit:4;stroke-dasharray:none;stroke-opacity:1" />
    <path
       style="fill:none;fill-rule:evenodd;stroke:#56505a;stroke-width:1;stroke-linecap:butt;stroke-linejoin:miter;stroke-miterlimit:4;stroke-dasharray:none;stroke-opacity:1"
       d="m 6.5,17.5 19,0"
       id="path9206" />
  </symbol>
</svg>
