<svg xmlns="http://www.w3.org/2000/svg" >
  <symbol viewBox="0 0 32 32" id="icon-lnk">
    <path
       id="path13996"
       d="m 15,28 0,-1"
       style="fill:none;fill-rule:evenodd;stroke:#56505a;stroke-width:2;stroke-linecap:butt;stroke-linejoin:miter;stroke-miterlimit:4;stroke-dasharray:none;stroke-opacity:1" />
    <path
       style="fill:none;fill-rule:evenodd;stroke:#56505a;stroke-width:2;stroke-linecap:butt;stroke-linejoin:miter;stroke-miterlimit:4;stroke-dasharray:none;stroke-opacity:1"
       d="m 31,28 0,-1"
       id="path13998" />
    <path
       id="path14000"
       d="m 15,27 c 0,-1.6569 1.34315,-3 3,-3"
       style="opacity:1;fill:none;fill-opacity:1;stroke:#56505a;stroke-width:2;stroke-linecap:round;stroke-miterlimit:4;stroke-dasharray:none;stroke-opacity:1" />
    <path
       id="path14002"
       d="m 18,31 c -1.65685,0 -3,-1.3431 -3,-3"
       style="opacity:1;fill:none;fill-opacity:1;stroke:#56505a;stroke-width:2;stroke-linecap:round;stroke-miterlimit:4;stroke-dasharray:none;stroke-opacity:1" />
    <path
       id="path14004"
       d="m 20,24 -2,0"
       style="fill:none;fill-rule:evenodd;stroke:#56505a;stroke-width:2;stroke-linecap:butt;stroke-linejoin:miter;stroke-miterlimit:4;stroke-dasharray:none;stroke-opacity:1" />
    <path
       style="opacity:1;fill:none;fill-opacity:1;stroke:#56505a;stroke-width:2;stroke-linecap:round;stroke-miterlimit:4;stroke-dasharray:none;stroke-opacity:1"
       d="m 31,28 c 0,1.6569 -1.34315,3 -3,3"
       id="path14006" />
    <path
       id="path14008"
       d="m 28,31 -2,0"
       style="fill:none;fill-rule:evenodd;stroke:#56505a;stroke-width:2;stroke-linecap:butt;stroke-linejoin:miter;stroke-miterlimit:4;stroke-dasharray:none;stroke-opacity:1" />
    <path
       style="opacity:1;fill:none;fill-opacity:1;stroke:#56505a;stroke-width:2;stroke-linecap:round;stroke-miterlimit:4;stroke-dasharray:none;stroke-opacity:1"
       d="m 28,24 c 1.65685,0 3,1.3431 3,3"
       id="path14010" />
    <path
       style="fill:none;fill-rule:evenodd;stroke:#56505a;stroke-width:2;stroke-linecap:butt;stroke-linejoin:miter;stroke-miterlimit:4;stroke-dasharray:none;stroke-opacity:1"
       d="m 20,31 -2,0"
       id="path14012" />
    <path
       style="fill:none;fill-rule:evenodd;stroke:#56505a;stroke-width:2;stroke-linecap:butt;stroke-linejoin:miter;stroke-miterlimit:4;stroke-dasharray:none;stroke-opacity:1"
       d="m 28,24 -2,0"
       id="path14014" />
    <path
       style="fill:none;fill-rule:evenodd;stroke:#56505a;stroke-width:1;stroke-linecap:butt;stroke-linejoin:miter;stroke-miterlimit:4;stroke-dasharray:none;stroke-opacity:1"
       d="m 28,27.5 -10.1,0"
       id="path14016" />
    <path
       id="path14018"
       d="m 28.5,21 0,-9.5"
       style="fill:none;fill-rule:evenodd;stroke:#56505a;stroke-width:1;stroke-linecap:butt;stroke-linejoin:miter;stroke-miterlimit:4;stroke-dasharray:none;stroke-opacity:1" />
    <path
       id="path14020"
       d="m 3.5,27.5 0,-16"
       style="fill:none;fill-rule:evenodd;stroke:#56505a;stroke-width:1;stroke-linecap:butt;stroke-linejoin:miter;stroke-miterlimit:4;stroke-dasharray:none;stroke-opacity:1" />
    <path
       style="fill:none;fill-rule:evenodd;stroke:#56505a;stroke-width:1;stroke-linecap:butt;stroke-linejoin:miter;stroke-miterlimit:4;stroke-dasharray:none;stroke-opacity:1"
       d="m 27.5,10.5 -23,0"
       id="path14022" />
    <path
       style="opacity:1;fill:none;stroke:#56505a;stroke-width:1;stroke-miterlimit:4;stroke-dasharray:none;stroke-opacity:1"
       d="m 28.5,11.5 c 0,-0.5523 -0.44772,-1 -1,-1"
       id="path14024" />
    <path
       id="path14026"
       d="m 4.5,10.5 c -0.55228,0 -1,0.4477 -1,1"
       style="opacity:1;fill:none;stroke:#56505a;stroke-width:1;stroke-miterlimit:4;stroke-dasharray:none;stroke-opacity:1" />
    <path
       style="opacity:1;fill:none;stroke:#56505a;stroke-width:1;stroke-miterlimit:4;stroke-dasharray:none;stroke-opacity:1"
       d="m 3.5,27.5 c 0,0.5523 0.44772,1 1,1"
       id="path14028" />
    <path
       id="path14030"
       d="m 12,28.5 -7.5,0"
       style="fill:none;fill-rule:evenodd;stroke:#56505a;stroke-width:1;stroke-linecap:butt;stroke-linejoin:miter;stroke-miterlimit:4;stroke-dasharray:none;stroke-opacity:1" />
    <path
       style="fill:none;fill-rule:evenodd;stroke:#56505a;stroke-width:2;stroke-linecap:round;stroke-linejoin:miter;stroke-miterlimit:4;stroke-dasharray:none;stroke-opacity:1"
       d="M 12,31 3,31"
       id="path14032" />
    <path
       style="fill:none;fill-rule:evenodd;stroke:#56505a;stroke-width:2;stroke-linecap:round;stroke-linejoin:miter;stroke-miterlimit:4;stroke-dasharray:none;stroke-opacity:1"
       d="M 29,1 3,1"
       id="path14034" />
    <path
       style="fill:none;fill-rule:evenodd;stroke:#56505a;stroke-width:2;stroke-linecap:round;stroke-linejoin:miter;stroke-miterlimit:4;stroke-dasharray:none;stroke-opacity:1"
       d="M 31,21 31,3"
       id="path14036" />
    <path
       style="fill:none;fill-rule:evenodd;stroke:#56505a;stroke-width:2;stroke-linecap:round;stroke-linejoin:miter;stroke-miterlimit:4;stroke-dasharray:none;stroke-opacity:1"
       d="M 1,29 1,3"
       id="path14038" />
    <path
       id="path14040"
       d="M 31,3 C 31,1.8955 30.10457,1 29,1"
       style="opacity:1;fill:none;stroke:#56505a;stroke-width:2;stroke-miterlimit:4;stroke-dasharray:none;stroke-opacity:1" />
    <path
       style="opacity:1;fill:none;stroke:#56505a;stroke-width:2;stroke-miterlimit:4;stroke-dasharray:none;stroke-opacity:1"
       d="M 3,1 C 1.89543,1 1,1.8955 1,3"
       id="path14042" />
    <path
       id="path14044"
       d="m 1,29 c 0,1.1046 0.89543,2 2,2"
       style="opacity:1;fill:none;stroke:#56505a;stroke-width:2;stroke-miterlimit:4;stroke-dasharray:none;stroke-opacity:1" />
    <path
       style="opacity:1;fill:none;stroke:#56505a;stroke-width:1;stroke-miterlimit:4;stroke-dasharray:none;stroke-opacity:1"
       d="M 7.5,6 A 1.5,1.5 0 0 1 6,7.5 1.5,1.5 0 0 1 4.5,6 1.5,1.5 0 0 1 6,4.5 1.5,1.5 0 0 1 7.5,6 Z"
       id="path14046" />
    <path
       id="path14048"
       d="M 12.5,6 A 1.5,1.5 0 0 1 11,7.5 1.5,1.5 0 0 1 9.5,6 1.5,1.5 0 0 1 11,4.5 1.5,1.5 0 0 1 12.5,6 Z"
       style="opacity:1;fill:none;stroke:#56505a;stroke-width:1;stroke-miterlimit:4;stroke-dasharray:none;stroke-opacity:1" />
    <path
       style="fill:none;fill-rule:evenodd;stroke:#56505a;stroke-width:1;stroke-linecap:butt;stroke-linejoin:miter;stroke-miterlimit:4;stroke-dasharray:none;stroke-opacity:1"
       d="m 27.5,6.5 0,-1"
       id="path14050" />
    <path
       style="fill:none;fill-rule:evenodd;stroke:#56505a;stroke-width:1;stroke-linecap:butt;stroke-linejoin:miter;stroke-miterlimit:4;stroke-dasharray:none;stroke-opacity:1"
       d="m 14.5,6.5 0,-1"
       id="path14052" />
    <path
       id="path14054"
       d="m 26.5,4.5 -11,0"
       style="fill:none;fill-rule:evenodd;stroke:#56505a;stroke-width:1;stroke-linecap:butt;stroke-linejoin:miter;stroke-miterlimit:4;stroke-dasharray:none;stroke-opacity:1" />
    <path
       id="path14056"
       d="m 27.5,5.5 c 0,-0.5523 -0.44772,-1 -1,-1"
       style="opacity:1;fill:none;stroke:#56505a;stroke-width:1;stroke-miterlimit:4;stroke-dasharray:none;stroke-opacity:1" />
    <path
       style="opacity:1;fill:none;stroke:#56505a;stroke-width:1;stroke-miterlimit:4;stroke-dasharray:none;stroke-opacity:1"
       d="m 15.5,4.5 c -0.55228,0 -1,0.4477 -1,1"
       id="path14058" />
    <path
       style="opacity:1;fill:none;stroke:#56505a;stroke-width:1;stroke-miterlimit:4;stroke-dasharray:none;stroke-opacity:1"
       d="m 26.5,7.5 c 0.55228,0 1,-0.4477 1,-1"
       id="path14060" />
    <path
       id="path14062"
       d="m 14.5,6.5 c 0,0.5523 0.44772,1 1,1"
       style="opacity:1;fill:none;stroke:#56505a;stroke-width:1;stroke-miterlimit:4;stroke-dasharray:none;stroke-opacity:1" />
    <path
       style="fill:none;fill-rule:evenodd;stroke:#56505a;stroke-width:1;stroke-linecap:butt;stroke-linejoin:miter;stroke-miterlimit:4;stroke-dasharray:none;stroke-opacity:1"
       d="m 26.5,7.5 -11,0"
       id="path14064" />
    <path
       d="m 25,25 c 0,-0.5523 0.44771,-1 1,-1"
       style="opacity:1;fill:none;fill-opacity:1;stroke:#56505a;stroke-width:2;stroke-linecap:round;stroke-miterlimit:4;stroke-dasharray:none;stroke-opacity:1"
       id="path14066" />
    <path
       id="path14068"
       style="opacity:1;fill:none;fill-opacity:1;stroke:#56505a;stroke-width:2;stroke-linecap:round;stroke-miterlimit:4;stroke-dasharray:none;stroke-opacity:1"
       d="m 20,24 c 0.55229,0 1,0.4477 1,1" />
    <path
       id="path14070"
       style="opacity:1;fill:none;fill-opacity:1;stroke:#56505a;stroke-width:2;stroke-linecap:round;stroke-miterlimit:4;stroke-dasharray:none;stroke-opacity:1"
       d="m 26,31 c -0.55229,0 -1,-0.4477 -1,-1" />
    <path
       d="m 21,30 c 0,0.5523 -0.44771,1 -1,1"
       style="opacity:1;fill:none;fill-opacity:1;stroke:#56505a;stroke-width:2;stroke-linecap:round;stroke-miterlimit:4;stroke-dasharray:none;stroke-opacity:1"
       id="path14072" />
  </symbol>
</svg>
