<svg xmlns="http://www.w3.org/2000/svg" >
  <symbol viewBox="0 0 32 32" id="icon-men">
    <path
       style="fill:none;fill-rule:evenodd;stroke:#56505a;stroke-width:2;stroke-linecap:round;stroke-linejoin:miter;stroke-miterlimit:4;stroke-dasharray:none;stroke-opacity:1"
       d="m 3,69 26,0"
       id="path8602" />
    <path
       style="fill:none;fill-rule:evenodd;stroke:#56505a;stroke-width:2;stroke-linecap:round;stroke-linejoin:miter;stroke-miterlimit:4;stroke-dasharray:none;stroke-opacity:1"
       d="M 1,97 1,71"
       id="path8604" />
    <path
       style="fill:none;fill-rule:evenodd;stroke:#56505a;stroke-width:2;stroke-linecap:round;stroke-linejoin:miter;stroke-miterlimit:4;stroke-dasharray:none;stroke-opacity:1"
       d="M 31,97 31,71"
       id="path8606" />
    <path
       id="path8608"
       d="M 1,71 C 1,69.8955 1.89543,69 3,69"
       style="opacity:1;fill:none;stroke:#56505a;stroke-width:2;stroke-miterlimit:4;stroke-dasharray:none;stroke-opacity:1" />
    <path
       style="opacity:1;fill:none;stroke:#56505a;stroke-width:2;stroke-miterlimit:4;stroke-dasharray:none;stroke-opacity:1"
       d="m 29,69 c 1.10457,0 2,0.8955 2,2"
       id="path8610" />
    <path
       style="opacity:1;fill:none;stroke:#56505a;stroke-width:2;stroke-miterlimit:4;stroke-dasharray:none;stroke-opacity:1"
       d="M 3,99 C 1.89543,99 1,98.1046 1,97"
       id="path8612" />
    <path
       id="path8614"
       d="m 31,97 c 0,1.1046 -0.89543,2 -2,2"
       style="opacity:1;fill:none;stroke:#56505a;stroke-width:2;stroke-miterlimit:4;stroke-dasharray:none;stroke-opacity:1" />
    <path
       id="path8616"
       d="m 3,99 26,0"
       style="fill:none;fill-rule:evenodd;stroke:#56505a;stroke-width:2;stroke-linecap:round;stroke-linejoin:miter;stroke-miterlimit:4;stroke-dasharray:none;stroke-opacity:1" />
    <path
       style="fill:none;fill-rule:evenodd;stroke:#56505a;stroke-width:1;stroke-linecap:butt;stroke-linejoin:miter;stroke-miterlimit:4;stroke-dasharray:none;stroke-opacity:1"
       d="m 5.5,77.5 0,-1"
       id="path8618" />
    <path
       style="fill:none;fill-rule:evenodd;stroke:#56505a;stroke-width:1;stroke-linecap:butt;stroke-linejoin:miter;stroke-miterlimit:4;stroke-dasharray:none;stroke-opacity:1"
       d="m 26.5,77.5 0,-1"
       id="path8620" />
    <path
       id="path8622"
       d="m 6.5,75.5 19,0"
       style="fill:none;fill-rule:evenodd;stroke:#56505a;stroke-width:1;stroke-linecap:butt;stroke-linejoin:miter;stroke-miterlimit:4;stroke-dasharray:none;stroke-opacity:1" />
    <path
       id="path8624"
       d="m 5.5,76.5 c 0,-0.5523 0.44772,-1 1,-1"
       style="opacity:1;fill:none;stroke:#56505a;stroke-width:1;stroke-miterlimit:4;stroke-dasharray:none;stroke-opacity:1" />
    <path
       style="opacity:1;fill:none;stroke:#56505a;stroke-width:1;stroke-miterlimit:4;stroke-dasharray:none;stroke-opacity:1"
       d="m 25.5,75.5 c 0.55228,0 1,0.4477 1,1"
       id="path8626" />
    <path
       style="opacity:1;fill:none;stroke:#56505a;stroke-width:1;stroke-miterlimit:4;stroke-dasharray:none;stroke-opacity:1"
       d="m 6.5,78.5 c -0.55228,0 -1,-0.4477 -1,-1"
       id="path8628" />
    <path
       id="path8630"
       d="m 26.5,77.5 c 0,0.5523 -0.44772,1 -1,1"
       style="opacity:1;fill:none;stroke:#56505a;stroke-width:1;stroke-miterlimit:4;stroke-dasharray:none;stroke-opacity:1" />
    <path
       style="fill:none;fill-rule:evenodd;stroke:#56505a;stroke-width:1;stroke-linecap:butt;stroke-linejoin:miter;stroke-miterlimit:4;stroke-dasharray:none;stroke-opacity:1"
       d="m 6.5,78.5 19,0"
       id="path8632" />
    <path
       id="path8634"
       d="m 5.5,85 0,-1"
       style="fill:none;fill-rule:evenodd;stroke:#56505a;stroke-width:1;stroke-linecap:butt;stroke-linejoin:miter;stroke-miterlimit:4;stroke-dasharray:none;stroke-opacity:1" />
    <path
       id="path8636"
       d="m 26.5,85 0,-1"
       style="fill:none;fill-rule:evenodd;stroke:#56505a;stroke-width:1;stroke-linecap:butt;stroke-linejoin:miter;stroke-miterlimit:4;stroke-dasharray:none;stroke-opacity:1" />
    <path
       style="fill:none;fill-rule:evenodd;stroke:#56505a;stroke-width:1;stroke-linecap:butt;stroke-linejoin:miter;stroke-miterlimit:4;stroke-dasharray:none;stroke-opacity:1"
       d="m 6.5,83 19,0"
       id="path8638" />
    <path
       style="opacity:1;fill:none;stroke:#56505a;stroke-width:1;stroke-miterlimit:4;stroke-dasharray:none;stroke-opacity:1"
       d="m 5.5,84 c 0,-0.5523 0.44772,-1 1,-1"
       id="path8640" />
    <path
       id="path8642"
       d="m 25.5,83 c 0.55228,0 1,0.4477 1,1"
       style="opacity:1;fill:none;stroke:#56505a;stroke-width:1;stroke-miterlimit:4;stroke-dasharray:none;stroke-opacity:1" />
    <path
       id="path8644"
       d="m 6.5,86 c -0.55228,0 -1,-0.4477 -1,-1"
       style="opacity:1;fill:none;stroke:#56505a;stroke-width:1;stroke-miterlimit:4;stroke-dasharray:none;stroke-opacity:1" />
    <path
       style="opacity:1;fill:none;stroke:#56505a;stroke-width:1;stroke-miterlimit:4;stroke-dasharray:none;stroke-opacity:1"
       d="m 26.5,85 c 0,0.5523 -0.44772,1 -1,1"
       id="path8646" />
    <path
       id="path8648"
       d="m 6.5,86 19,0"
       style="fill:none;fill-rule:evenodd;stroke:#56505a;stroke-width:1;stroke-linecap:butt;stroke-linejoin:miter;stroke-miterlimit:4;stroke-dasharray:none;stroke-opacity:1" />
    <path
       style="fill:none;fill-rule:evenodd;stroke:#56505a;stroke-width:1;stroke-linecap:butt;stroke-linejoin:miter;stroke-miterlimit:4;stroke-dasharray:none;stroke-opacity:1"
       d="m 5.5,92 0,-1"
       id="path8650" />
    <path
       style="fill:none;fill-rule:evenodd;stroke:#56505a;stroke-width:1;stroke-linecap:butt;stroke-linejoin:miter;stroke-miterlimit:4;stroke-dasharray:none;stroke-opacity:1"
       d="m 26.5,92 0,-1"
       id="path8652" />
    <path
       id="path8654"
       d="m 6.5,90 19,0"
       style="fill:none;fill-rule:evenodd;stroke:#56505a;stroke-width:1;stroke-linecap:butt;stroke-linejoin:miter;stroke-miterlimit:4;stroke-dasharray:none;stroke-opacity:1" />
    <path
       id="path8656"
       d="m 5.5,91 c 0,-0.5523 0.44772,-1 1,-1"
       style="opacity:1;fill:none;stroke:#56505a;stroke-width:1;stroke-miterlimit:4;stroke-dasharray:none;stroke-opacity:1" />
    <path
       style="opacity:1;fill:none;stroke:#56505a;stroke-width:1;stroke-miterlimit:4;stroke-dasharray:none;stroke-opacity:1"
       d="m 25.5,90 c 0.55228,0 1,0.4477 1,1"
       id="path8658" />
    <path
       style="opacity:1;fill:none;stroke:#56505a;stroke-width:1;stroke-miterlimit:4;stroke-dasharray:none;stroke-opacity:1"
       d="m 6.5,93 c -0.55228,0 -1,-0.4477 -1,-1"
       id="path8660" />
    <path
       id="path8662"
       d="m 26.5,92 c 0,0.5523 -0.44772,1 -1,1"
       style="opacity:1;fill:none;stroke:#56505a;stroke-width:1;stroke-miterlimit:4;stroke-dasharray:none;stroke-opacity:1" />
    <path
       style="fill:none;fill-rule:evenodd;stroke:#56505a;stroke-width:1;stroke-linecap:butt;stroke-linejoin:miter;stroke-miterlimit:4;stroke-dasharray:none;stroke-opacity:1"
       d="m 6.5,93 19,0"
       id="path8664" />
    <g
       id="icon-men">
      <path
         style="fill:none;fill-rule:evenodd;stroke:#56505a;stroke-width:2;stroke-linecap:round;stroke-linejoin:miter;stroke-miterlimit:4;stroke-dasharray:none;stroke-opacity:1"
         d="M 2,1 28,1"
         id="path14076" />
      <path
         style="fill:none;fill-rule:evenodd;stroke:#56505a;stroke-width:2;stroke-linecap:round;stroke-linejoin:miter;stroke-miterlimit:4;stroke-dasharray:none;stroke-opacity:1"
         d="M 0,29 0,3"
         id="path14078" />
      <path
         style="fill:none;fill-rule:evenodd;stroke:#56505a;stroke-width:2;stroke-linecap:round;stroke-linejoin:miter;stroke-miterlimit:4;stroke-dasharray:none;stroke-opacity:1"
         d="M 30,29 30,3"
         id="path14080" />
      <path
         id="path14082"
         d="M 0,3 C 0,1.8955 0.89543,1 2,1"
         style="opacity:1;fill:none;stroke:#56505a;stroke-width:2;stroke-miterlimit:4;stroke-dasharray:none;stroke-opacity:1" />
      <path
         style="opacity:1;fill:none;stroke:#56505a;stroke-width:2;stroke-miterlimit:4;stroke-dasharray:none;stroke-opacity:1"
         d="m 28,1 c 1.10457,0 2,0.8955 2,2"
         id="path14084" />
      <path
         style="opacity:1;fill:none;stroke:#56505a;stroke-width:2;stroke-miterlimit:4;stroke-dasharray:none;stroke-opacity:1"
         d="M 2,31 C 0.89543,31 0,30.1046 0,29"
         id="path14086" />
      <path
         id="path14088"
         d="m 30,29 c 0,1.1046 -0.89543,2 -2,2"
         style="opacity:1;fill:none;stroke:#56505a;stroke-width:2;stroke-miterlimit:4;stroke-dasharray:none;stroke-opacity:1" />
      <path
         id="path14090"
         d="m 2,31 26,0"
         style="fill:none;fill-rule:evenodd;stroke:#56505a;stroke-width:2;stroke-linecap:round;stroke-linejoin:miter;stroke-miterlimit:4;stroke-dasharray:none;stroke-opacity:1" />
      <path
         style="fill:none;fill-rule:evenodd;stroke:#56505a;stroke-width:1;stroke-linecap:butt;stroke-linejoin:miter;stroke-miterlimit:4;stroke-dasharray:none;stroke-opacity:1"
         d="m 4.5,9.5 0,-1"
         id="path14092" />
      <path
         style="fill:none;fill-rule:evenodd;stroke:#56505a;stroke-width:1;stroke-linecap:butt;stroke-linejoin:miter;stroke-miterlimit:4;stroke-dasharray:none;stroke-opacity:1"
         d="m 25.5,9.5 0,-1"
         id="path14094" />
      <path
         id="path14096"
         d="m 5.5,7.5 19,0"
         style="fill:none;fill-rule:evenodd;stroke:#56505a;stroke-width:1;stroke-linecap:butt;stroke-linejoin:miter;stroke-miterlimit:4;stroke-dasharray:none;stroke-opacity:1" />
      <path
         id="path14098"
         d="m 4.5,8.5 c 0,-0.5523 0.44772,-1 1,-1"
         style="opacity:1;fill:none;stroke:#56505a;stroke-width:1;stroke-miterlimit:4;stroke-dasharray:none;stroke-opacity:1" />
      <path
         style="opacity:1;fill:none;stroke:#56505a;stroke-width:1;stroke-miterlimit:4;stroke-dasharray:none;stroke-opacity:1"
         d="m 24.5,7.5 c 0.55228,0 1,0.4477 1,1"
         id="path14100" />
      <path
         style="opacity:1;fill:none;stroke:#56505a;stroke-width:1;stroke-miterlimit:4;stroke-dasharray:none;stroke-opacity:1"
         d="m 5.5,10.5 c -0.55228,0 -1,-0.4477 -1,-1"
         id="path14102" />
      <path
         id="path14104"
         d="m 25.5,9.5 c 0,0.5523 -0.44772,1 -1,1"
         style="opacity:1;fill:none;stroke:#56505a;stroke-width:1;stroke-miterlimit:4;stroke-dasharray:none;stroke-opacity:1" />
      <path
         style="fill:none;fill-rule:evenodd;stroke:#56505a;stroke-width:1;stroke-linecap:butt;stroke-linejoin:miter;stroke-miterlimit:4;stroke-dasharray:none;stroke-opacity:1"
         d="m 5.5,10.5 19,0"
         id="path14106" />
      <path
         id="path14108"
         d="m 4.5,17 0,-1"
         style="fill:none;fill-rule:evenodd;stroke:#56505a;stroke-width:1;stroke-linecap:butt;stroke-linejoin:miter;stroke-miterlimit:4;stroke-dasharray:none;stroke-opacity:1" />
      <path
         id="path14110"
         d="m 25.5,17 0,-1"
         style="fill:none;fill-rule:evenodd;stroke:#56505a;stroke-width:1;stroke-linecap:butt;stroke-linejoin:miter;stroke-miterlimit:4;stroke-dasharray:none;stroke-opacity:1" />
      <path
         style="fill:none;fill-rule:evenodd;stroke:#56505a;stroke-width:1;stroke-linecap:butt;stroke-linejoin:miter;stroke-miterlimit:4;stroke-dasharray:none;stroke-opacity:1"
         d="m 5.5,15 19,0"
         id="path14112" />
      <path
         style="opacity:1;fill:none;stroke:#56505a;stroke-width:1;stroke-miterlimit:4;stroke-dasharray:none;stroke-opacity:1"
         d="m 4.5,16 c 0,-0.5523 0.44772,-1 1,-1"
         id="path14114" />
      <path
         id="path14116"
         d="m 24.5,15 c 0.55228,0 1,0.4477 1,1"
         style="opacity:1;fill:none;stroke:#56505a;stroke-width:1;stroke-miterlimit:4;stroke-dasharray:none;stroke-opacity:1" />
      <path
         id="path14118"
         d="m 5.5,18 c -0.55228,0 -1,-0.4477 -1,-1"
         style="opacity:1;fill:none;stroke:#56505a;stroke-width:1;stroke-miterlimit:4;stroke-dasharray:none;stroke-opacity:1" />
      <path
         style="opacity:1;fill:none;stroke:#56505a;stroke-width:1;stroke-miterlimit:4;stroke-dasharray:none;stroke-opacity:1"
         d="m 25.5,17 c 0,0.5523 -0.44772,1 -1,1"
         id="path14120" />
      <path
         id="path14122"
         d="m 5.5,18 19,0"
         style="fill:none;fill-rule:evenodd;stroke:#56505a;stroke-width:1;stroke-linecap:butt;stroke-linejoin:miter;stroke-miterlimit:4;stroke-dasharray:none;stroke-opacity:1" />
      <path
         style="fill:none;fill-rule:evenodd;stroke:#56505a;stroke-width:1;stroke-linecap:butt;stroke-linejoin:miter;stroke-miterlimit:4;stroke-dasharray:none;stroke-opacity:1"
         d="m 4.5,24 0,-1"
         id="path14124" />
      <path
         style="fill:none;fill-rule:evenodd;stroke:#56505a;stroke-width:1;stroke-linecap:butt;stroke-linejoin:miter;stroke-miterlimit:4;stroke-dasharray:none;stroke-opacity:1"
         d="m 25.5,24 0,-1"
         id="path14126" />
      <path
         id="path14128"
         d="m 5.5,22 19,0"
         style="fill:none;fill-rule:evenodd;stroke:#56505a;stroke-width:1;stroke-linecap:butt;stroke-linejoin:miter;stroke-miterlimit:4;stroke-dasharray:none;stroke-opacity:1" />
      <path
         id="path14130"
         d="m 4.5,23 c 0,-0.5523 0.44772,-1 1,-1"
         style="opacity:1;fill:none;stroke:#56505a;stroke-width:1;stroke-miterlimit:4;stroke-dasharray:none;stroke-opacity:1" />
      <path
         style="opacity:1;fill:none;stroke:#56505a;stroke-width:1;stroke-miterlimit:4;stroke-dasharray:none;stroke-opacity:1"
         d="m 24.5,22 c 0.55228,0 1,0.4477 1,1"
         id="path14132" />
      <path
         style="opacity:1;fill:none;stroke:#56505a;stroke-width:1;stroke-miterlimit:4;stroke-dasharray:none;stroke-opacity:1"
         d="m 5.5,25 c -0.55228,0 -1,-0.4477 -1,-1"
         id="path14134" />
      <path
         id="path14136"
         d="m 25.5,24 c 0,0.5523 -0.44772,1 -1,1"
         style="opacity:1;fill:none;stroke:#56505a;stroke-width:1;stroke-miterlimit:4;stroke-dasharray:none;stroke-opacity:1" />
      <path
         style="fill:none;fill-rule:evenodd;stroke:#56505a;stroke-width:1;stroke-linecap:butt;stroke-linejoin:miter;stroke-miterlimit:4;stroke-dasharray:none;stroke-opacity:1"
         d="m 5.5,25 19,0"
         id="path14138" />
    </symbol>
    <g
       id="symbol8301">
      <path
         style="fill:none;fill-rule:evenodd;stroke:#56505a;stroke-width:2;stroke-linecap:round;stroke-linejoin:miter;stroke-miterlimit:4;stroke-dasharray:none;stroke-opacity:1"
         d="M 2,1 28,1"
         id="path14076-3" />
      <path
         style="fill:none;fill-rule:evenodd;stroke:#56505a;stroke-width:2;stroke-linecap:round;stroke-linejoin:miter;stroke-miterlimit:4;stroke-dasharray:none;stroke-opacity:1"
         d="M 0,29 0,3"
         id="path14078-6" />
      <path
         style="fill:none;fill-rule:evenodd;stroke:#56505a;stroke-width:2;stroke-linecap:round;stroke-linejoin:miter;stroke-miterlimit:4;stroke-dasharray:none;stroke-opacity:1"
         d="M 30,29 30,3"
         id="path14080-7" />
      <path
         id="path14082-5"
         d="M 0,3 C 0,1.8955 0.89543,1 2,1"
         style="opacity:1;fill:none;stroke:#56505a;stroke-width:2;stroke-miterlimit:4;stroke-dasharray:none;stroke-opacity:1" />
      <path
         style="opacity:1;fill:none;stroke:#56505a;stroke-width:2;stroke-miterlimit:4;stroke-dasharray:none;stroke-opacity:1"
         d="m 28,1 c 1.10457,0 2,0.8955 2,2"
         id="path14084-3" />
      <path
         style="opacity:1;fill:none;stroke:#56505a;stroke-width:2;stroke-miterlimit:4;stroke-dasharray:none;stroke-opacity:1"
         d="M 2,31 C 0.89543,31 0,30.1046 0,29"
         id="path14086-5" />
      <path
         id="path14088-6"
         d="m 30,29 c 0,1.1046 -0.89543,2 -2,2"
         style="opacity:1;fill:none;stroke:#56505a;stroke-width:2;stroke-miterlimit:4;stroke-dasharray:none;stroke-opacity:1" />
      <path
         id="path14090-2"
         d="m 2,31 26,0"
         style="fill:none;fill-rule:evenodd;stroke:#56505a;stroke-width:2;stroke-linecap:round;stroke-linejoin:miter;stroke-miterlimit:4;stroke-dasharray:none;stroke-opacity:1" />
      <path
         style="fill:none;fill-rule:evenodd;stroke:#56505a;stroke-width:1;stroke-linecap:butt;stroke-linejoin:miter;stroke-miterlimit:4;stroke-dasharray:none;stroke-opacity:1"
         d="m 4.5,9.5 0,-1"
         id="path14092-9" />
      <path
         style="fill:none;fill-rule:evenodd;stroke:#56505a;stroke-width:1;stroke-linecap:butt;stroke-linejoin:miter;stroke-miterlimit:4;stroke-dasharray:none;stroke-opacity:1"
         d="m 25.5,9.5 0,-1"
         id="path14094-1" />
      <path
         id="path14096-2"
         d="m 5.5,7.5 19,0"
         style="fill:none;fill-rule:evenodd;stroke:#56505a;stroke-width:1;stroke-linecap:butt;stroke-linejoin:miter;stroke-miterlimit:4;stroke-dasharray:none;stroke-opacity:1" />
      <path
         id="path14098-7"
         d="m 4.5,8.5 c 0,-0.5523 0.44772,-1 1,-1"
         style="opacity:1;fill:none;stroke:#56505a;stroke-width:1;stroke-miterlimit:4;stroke-dasharray:none;stroke-opacity:1" />
      <path
         style="opacity:1;fill:none;stroke:#56505a;stroke-width:1;stroke-miterlimit:4;stroke-dasharray:none;stroke-opacity:1"
         d="m 24.5,7.5 c 0.55228,0 1,0.4477 1,1"
         id="path14100-0" />
      <path
         style="opacity:1;fill:none;stroke:#56505a;stroke-width:1;stroke-miterlimit:4;stroke-dasharray:none;stroke-opacity:1"
         d="m 5.5,10.5 c -0.55228,0 -1,-0.4477 -1,-1"
         id="path14102-9" />
      <path
         id="path14104-3"
         d="m 25.5,9.5 c 0,0.5523 -0.44772,1 -1,1"
         style="opacity:1;fill:none;stroke:#56505a;stroke-width:1;stroke-miterlimit:4;stroke-dasharray:none;stroke-opacity:1" />
      <path
         style="fill:none;fill-rule:evenodd;stroke:#56505a;stroke-width:1;stroke-linecap:butt;stroke-linejoin:miter;stroke-miterlimit:4;stroke-dasharray:none;stroke-opacity:1"
         d="m 5.5,10.5 19,0"
         id="path14106-6" />
      <path
         id="path14108-0"
         d="m 4.5,17 0,-1"
         style="fill:none;fill-rule:evenodd;stroke:#56505a;stroke-width:1;stroke-linecap:butt;stroke-linejoin:miter;stroke-miterlimit:4;stroke-dasharray:none;stroke-opacity:1" />
      <path
         id="path14110-6"
         d="m 25.5,17 0,-1"
         style="fill:none;fill-rule:evenodd;stroke:#56505a;stroke-width:1;stroke-linecap:butt;stroke-linejoin:miter;stroke-miterlimit:4;stroke-dasharray:none;stroke-opacity:1" />
      <path
         style="fill:none;fill-rule:evenodd;stroke:#56505a;stroke-width:1;stroke-linecap:butt;stroke-linejoin:miter;stroke-miterlimit:4;stroke-dasharray:none;stroke-opacity:1"
         d="m 5.5,15 19,0"
         id="path14112-2" />
      <path
         style="opacity:1;fill:none;stroke:#56505a;stroke-width:1;stroke-miterlimit:4;stroke-dasharray:none;stroke-opacity:1"
         d="m 4.5,16 c 0,-0.5523 0.44772,-1 1,-1"
         id="path14114-6" />
      <path
         id="path14116-1"
         d="m 24.5,15 c 0.55228,0 1,0.4477 1,1"
         style="opacity:1;fill:none;stroke:#56505a;stroke-width:1;stroke-miterlimit:4;stroke-dasharray:none;stroke-opacity:1" />
      <path
         id="path14118-8"
         d="m 5.5,18 c -0.55228,0 -1,-0.4477 -1,-1"
         style="opacity:1;fill:none;stroke:#56505a;stroke-width:1;stroke-miterlimit:4;stroke-dasharray:none;stroke-opacity:1" />
      <path
         style="opacity:1;fill:none;stroke:#56505a;stroke-width:1;stroke-miterlimit:4;stroke-dasharray:none;stroke-opacity:1"
         d="m 25.5,17 c 0,0.5523 -0.44772,1 -1,1"
         id="path14120-7" />
      <path
         id="path14122-9"
         d="m 5.5,18 19,0"
         style="fill:none;fill-rule:evenodd;stroke:#56505a;stroke-width:1;stroke-linecap:butt;stroke-linejoin:miter;stroke-miterlimit:4;stroke-dasharray:none;stroke-opacity:1" />
      <path
         style="fill:none;fill-rule:evenodd;stroke:#56505a;stroke-width:1;stroke-linecap:butt;stroke-linejoin:miter;stroke-miterlimit:4;stroke-dasharray:none;stroke-opacity:1"
         d="m 4.5,24 0,-1"
         id="path14124-2" />
      <path
         style="fill:none;fill-rule:evenodd;stroke:#56505a;stroke-width:1;stroke-linecap:butt;stroke-linejoin:miter;stroke-miterlimit:4;stroke-dasharray:none;stroke-opacity:1"
         d="m 25.5,24 0,-1"
         id="path14126-0" />
      <path
         id="path14128-2"
         d="m 5.5,22 19,0"
         style="fill:none;fill-rule:evenodd;stroke:#56505a;stroke-width:1;stroke-linecap:butt;stroke-linejoin:miter;stroke-miterlimit:4;stroke-dasharray:none;stroke-opacity:1" />
      <path
         id="path14130-3"
         d="m 4.5,23 c 0,-0.5523 0.44772,-1 1,-1"
         style="opacity:1;fill:none;stroke:#56505a;stroke-width:1;stroke-miterlimit:4;stroke-dasharray:none;stroke-opacity:1" />
      <path
         style="opacity:1;fill:none;stroke:#56505a;stroke-width:1;stroke-miterlimit:4;stroke-dasharray:none;stroke-opacity:1"
         d="m 24.5,22 c 0.55228,0 1,0.4477 1,1"
         id="path14132-7" />
      <path
         style="opacity:1;fill:none;stroke:#56505a;stroke-width:1;stroke-miterlimit:4;stroke-dasharray:none;stroke-opacity:1"
         d="m 5.5,25 c -0.55228,0 -1,-0.4477 -1,-1"
         id="path14134-5" />
      <path
         id="path14136-9"
         d="m 25.5,24 c 0,0.5523 -0.44772,1 -1,1"
         style="opacity:1;fill:none;stroke:#56505a;stroke-width:1;stroke-miterlimit:4;stroke-dasharray:none;stroke-opacity:1" />
      <path
         style="fill:none;fill-rule:evenodd;stroke:#56505a;stroke-width:1;stroke-linecap:butt;stroke-linejoin:miter;stroke-miterlimit:4;stroke-dasharray:none;stroke-opacity:1"
         d="m 5.5,25 19,0"
         id="path14138-2" />
  </symbol>
</svg>
