<?xml version="1.0" encoding="UTF-8" standalone="no"?>
<!-- Created with Inkscape (http://www.inkscape.org/) -->

<svg
   xmlns:dc="http://purl.org/dc/elements/1.1/"
   xmlns:cc="http://creativecommons.org/ns#"
   xmlns:rdf="http://www.w3.org/1999/02/22-rdf-syntax-ns#"
   xmlns:svg="http://www.w3.org/2000/svg"
   xmlns="http://www.w3.org/2000/svg"
   xmlns:sodipodi="http://sodipodi.sourceforge.net/DTD/sodipodi-0.dtd"
   xmlns:inkscape="http://www.inkscape.org/namespaces/inkscape"
   width="210mm"
   height="297mm"
   viewBox="0 0 744.09448819 1052.3622047"
   id="svg2"
   version="1.1"
   inkscape:version="0.91 r13725"
   sodipodi:docname="drawing.svg">
  <defs
     id="defs4" />
  <sodipodi:namedview
     id="base"
     pagecolor="#ffffff"
     bordercolor="#666666"
     borderopacity="1.0"
     inkscape:pageopacity="0.0"
     inkscape:pageshadow="2"
     inkscape:zoom="0.35355339"
     inkscape:cx="-863.60595"
     inkscape:cy="1660.4236"
     inkscape:document-units="px"
     inkscape:current-layer="layer1"
     showgrid="false"
     inkscape:snap-bbox="true"
     inkscape:bbox-paths="true"
     inkscape:bbox-nodes="true"
     inkscape:snap-bbox-edge-midpoints="true"
     inkscape:snap-bbox-midpoints="true"
     inkscape:object-paths="true"
     inkscape:snap-intersection-paths="true"
     inkscape:object-nodes="true"
     inkscape:snap-smooth-nodes="true"
     inkscape:snap-midpoints="true"
     inkscape:snap-object-midpoints="true"
     inkscape:snap-center="true"
     inkscape:snap-text-baseline="true"
     inkscape:snap-page="false"
     showguides="true"
     inkscape:guide-bbox="true"
     inkscape:window-width="1280"
     inkscape:window-height="756"
     inkscape:window-x="0"
     inkscape:window-y="44"
     inkscape:window-maximized="1" />
  <metadata
     id="metadata7">
    <rdf:RDF>
      <cc:Work
         rdf:about="">
        <dc:format>image/svg+xml</dc:format>
        <dc:type
           rdf:resource="http://purl.org/dc/dcmitype/StillImage" />
        <dc:title></dc:title>
      </cc:Work>
    </rdf:RDF>
  </metadata>
  <g
     inkscape:label="Capa 1"
     inkscape:groupmode="layer"
     id="layer1">
    <rect
       y="902.36243"
       x="110"
       height="100"
       width="100"
       id="rect4165"
       style="color:#000000;display:inline;overflow:visible;visibility:visible;opacity:1;fill:#2a363b;fill-opacity:1;fill-rule:evenodd;stroke:none;stroke-width:10;stroke-linecap:round;stroke-linejoin:round;stroke-miterlimit:4;stroke-dasharray:none;stroke-dashoffset:0;stroke-opacity:1;marker:none;enable-background:accumulate" />
    <path
       style="color:#000000;display:inline;overflow:visible;visibility:visible;opacity:1;fill:#2a363b;fill-opacity:1;fill-rule:evenodd;stroke:none;stroke-width:10;stroke-linecap:round;stroke-linejoin:round;stroke-miterlimit:4;stroke-dasharray:none;stroke-dashoffset:0;stroke-opacity:1;marker:none;enable-background:accumulate"
       d="m 110,802.36133 c -55.22847,0 -100.10752,44.77163 -100,100 a 50,50 0 0 1 50,-50 50,50 0 0 1 50,50 c 50,0 100,1.2e-4 100,0 0,-55.22847 -44.77153,-100 -100,-100 z"
       id="path4167"
       inkscape:connector-curvature="0" />
    <rect
       style="color:#000000;display:inline;overflow:visible;visibility:visible;opacity:1;fill:#2a363b;fill-opacity:1;fill-rule:evenodd;stroke:none;stroke-width:10;stroke-linecap:round;stroke-linejoin:round;stroke-miterlimit:4;stroke-dasharray:none;stroke-dashoffset:0;stroke-opacity:1;marker:none;enable-background:accumulate"
       id="rect4136"
       width="200"
       height="200"
       x="-300"
       y="58.076488" />
    <rect
       y="58.076488"
       x="-100"
       height="200"
       width="200"
       id="rect4138"
       style="color:#000000;display:inline;overflow:visible;visibility:visible;opacity:1;fill:#e84a5f;fill-opacity:1;fill-rule:evenodd;stroke:none;stroke-width:10;stroke-linecap:round;stroke-linejoin:round;stroke-miterlimit:4;stroke-dasharray:none;stroke-dashoffset:0;stroke-opacity:1;marker:none;enable-background:accumulate" />
    <rect
       style="color:#000000;display:inline;overflow:visible;visibility:visible;opacity:1;fill:#24c67d;fill-opacity:1;fill-rule:evenodd;stroke:none;stroke-width:10;stroke-linecap:round;stroke-linejoin:round;stroke-miterlimit:4;stroke-dasharray:none;stroke-dashoffset:0;stroke-opacity:1;marker:none;enable-background:accumulate"
       id="rect4140"
       width="200"
       height="200"
       x="300"
       y="58.076488" />
    <rect
       y="-200"
       x="151.42857"
       height="200"
       width="200"
       id="rect4142"
       style="color:#000000;display:inline;overflow:visible;visibility:visible;opacity:1;fill:#355c7d;fill-opacity:1;fill-rule:evenodd;stroke:none;stroke-width:10;stroke-linecap:round;stroke-linejoin:round;stroke-miterlimit:4;stroke-dasharray:none;stroke-dashoffset:0;stroke-opacity:1;marker:none;enable-background:accumulate" />
    <rect
       y="-241.92351"
       x="600"
       height="200"
       width="200"
       id="rect4144"
       style="color:#000000;display:inline;overflow:visible;visibility:visible;opacity:1;fill:#f16a43;fill-opacity:1;fill-rule:evenodd;stroke:none;stroke-width:10;stroke-linecap:round;stroke-linejoin:round;stroke-miterlimit:4;stroke-dasharray:none;stroke-dashoffset:0;stroke-opacity:1;marker:none;enable-background:accumulate" />
    <rect
       y="58.076488"
       x="700"
       height="200"
       width="200"
       id="rect4148"
       style="color:#000000;display:inline;overflow:visible;visibility:visible;opacity:1;fill:#f7d969;fill-opacity:1;fill-rule:evenodd;stroke:none;stroke-width:10;stroke-linecap:round;stroke-linejoin:round;stroke-miterlimit:4;stroke-dasharray:none;stroke-dashoffset:0;stroke-opacity:1;marker:none;enable-background:accumulate" />
    <rect
       y="58.076488"
       x="900"
       height="200"
       width="200"
       id="rect4150"
       style="color:#000000;display:inline;overflow:visible;visibility:visible;opacity:1;fill:#2a363b;fill-opacity:1;fill-rule:evenodd;stroke:none;stroke-width:10;stroke-linecap:round;stroke-linejoin:round;stroke-miterlimit:4;stroke-dasharray:none;stroke-dashoffset:0;stroke-opacity:1;marker:none;enable-background:accumulate" />
    <rect
       style="color:#000000;display:inline;overflow:visible;visibility:visible;opacity:1;fill:#3c9def;fill-opacity:1;fill-rule:evenodd;stroke:none;stroke-width:10;stroke-linecap:round;stroke-linejoin:round;stroke-miterlimit:4;stroke-dasharray:none;stroke-dashoffset:0;stroke-opacity:1;marker:none;enable-background:accumulate"
       id="rect4152"
       width="200"
       height="200"
       x="100"
       y="58.076488" />
    <rect
       style="color:#000000;display:inline;overflow:visible;visibility:visible;opacity:1;fill:#2a363b;fill-opacity:1;fill-rule:evenodd;stroke:none;stroke-width:10;stroke-linecap:round;stroke-linejoin:round;stroke-miterlimit:4;stroke-dasharray:none;stroke-dashoffset:0;stroke-opacity:1;marker:none;enable-background:accumulate"
       id="rect4154"
       width="1000"
       height="200"
       x="-100"
       y="258.07648" />
    <rect
       style="color:#000000;display:inline;overflow:visible;visibility:visible;opacity:1;fill:#f14398;fill-opacity:1;fill-rule:evenodd;stroke:none;stroke-width:10;stroke-linecap:round;stroke-linejoin:round;stroke-miterlimit:4;stroke-dasharray:none;stroke-dashoffset:0;stroke-opacity:1;marker:none;enable-background:accumulate"
       id="rect4156"
       width="200"
       height="200"
       x="500"
       y="58.076488" />
    <path
       transform="matrix(0.96592583,-0.25881905,0,1,0,0)"
       style="color:#000000;display:inline;overflow:visible;visibility:visible;opacity:1;fill:#2a363b;fill-opacity:1;fill-rule:evenodd;stroke:none;stroke-width:10;stroke-linecap:round;stroke-linejoin:round;stroke-miterlimit:4;stroke-dasharray:none;stroke-dashoffset:0;stroke-opacity:1;marker:none;enable-background:accumulate"
       d="m 496.93249,1017.5801 103.52762,26.795 0,100 -103.52761,0 z"
       id="rect4200"
       inkscape:connector-curvature="0"
       sodipodi:nodetypes="ccccc" />
    <path
       inkscape:connector-curvature="0"
       id="path4202"
       d="m 479.99993,788.96455 c -55.22847,0 -100.10752,44.77163 -100,100 a 50,50 0 0 1 50,-50 50,50 0 0 1 50,50 c 50,0 100,1.2e-4 100,0 0,-55.22847 -44.77153,-100 -100,-100 z"
       style="color:#000000;display:inline;overflow:visible;visibility:visible;opacity:1;fill:#2a363b;fill-opacity:1;fill-rule:evenodd;stroke:none;stroke-width:10;stroke-linecap:round;stroke-linejoin:round;stroke-miterlimit:4;stroke-dasharray:none;stroke-dashoffset:0;stroke-opacity:1;marker:none;enable-background:accumulate" />
    <path
       id="path4205"
       d="m 589.99993,859.4901 99.99999,-26.79491 0,126.79482 -99.99999,26.79489 z"
       style="color:#000000;display:inline;overflow:visible;visibility:visible;opacity:1;fill:#2a363b;fill-opacity:1;fill-rule:evenodd;stroke:none;stroke-width:10;stroke-linecap:round;stroke-linejoin:round;stroke-miterlimit:4;stroke-dasharray:none;stroke-dashoffset:0;stroke-opacity:1;marker:none;enable-background:accumulate"
       inkscape:connector-curvature="0"
       sodipodi:nodetypes="ccccc" />
    <path
       sodipodi:nodetypes="ccccc"
       inkscape:connector-curvature="0"
       id="path4207"
       d="m 799.99992,930.01576 -100,-8e-5 0,-100 99.99999,-26.79492 z"
       style="color:#000000;display:inline;overflow:visible;visibility:visible;opacity:1;fill:#2a363b;fill-opacity:1;fill-rule:evenodd;stroke:none;stroke-width:10;stroke-linecap:round;stroke-linejoin:round;stroke-miterlimit:4;stroke-dasharray:none;stroke-dashoffset:0;stroke-opacity:1;marker:none;enable-background:accumulate" />
    <path
       style="color:#000000;display:inline;overflow:visible;visibility:visible;opacity:1;fill:#2a363b;fill-opacity:1;fill-rule:evenodd;stroke:none;stroke-width:10;stroke-linecap:round;stroke-linejoin:round;stroke-miterlimit:4;stroke-dasharray:none;stroke-dashoffset:0;stroke-opacity:1;marker:none;enable-background:accumulate"
       d="m 799.99992,1030.0157 c 55.22847,0 100.10752,-44.77159 100,-99.99999 a 50,50 0 0 1 -50,50 50,50 0 0 1 -50,-50 c -50,0 -100,-1.2e-4 -100,0 0,55.2285 44.77153,99.99999 100,99.99999 z"
       id="path4209"
       inkscape:connector-curvature="0" />
    <path
       style="color:#000000;display:inline;overflow:visible;visibility:visible;opacity:1;fill:#2a363b;fill-opacity:1;fill-rule:evenodd;stroke:none;stroke-width:10;stroke-linecap:round;stroke-linejoin:round;stroke-miterlimit:4;stroke-dasharray:none;stroke-dashoffset:0;stroke-opacity:1;marker:none;enable-background:accumulate"
       d="m -178.22772,-793.23315 a 50,50 0 0 1 -18.30127,68.30127 50,50 0 0 1 -68.30127,-18.30127 50,50 0 0 1 18.30127,-68.30127 50,50 0 0 1 68.30127,18.30127 z"
       id="path4240"
       inkscape:connector-curvature="0" />
    <path
       id="path4243"
       d="m -91.625179,-843.23315 a 50,50 0 0 1 -18.301271,68.30127 50,50 0 0 1 -68.30127,-18.30127 50,50 0 0 1 18.30127,-68.30127 50,50 0 0 1 68.301271,18.30127 z"
       style="color:#000000;display:inline;overflow:visible;visibility:visible;opacity:1;fill:#2a363b;fill-opacity:1;fill-rule:evenodd;stroke:none;stroke-width:10;stroke-linecap:round;stroke-linejoin:round;stroke-miterlimit:4;stroke-dasharray:none;stroke-dashoffset:0;stroke-opacity:1;marker:none;enable-background:accumulate"
       inkscape:connector-curvature="0"
       inkscape:transform-center-x="-86.60254"
       inkscape:transform-center-y="-50" />
    <path
       inkscape:transform-center-y="50"
       inkscape:transform-center-x="86.60254"
       inkscape:connector-curvature="0"
       style="color:#000000;display:inline;overflow:visible;visibility:visible;opacity:1;fill:#2a363b;fill-opacity:1;fill-rule:evenodd;stroke:none;stroke-width:10;stroke-linecap:round;stroke-linejoin:round;stroke-miterlimit:4;stroke-dasharray:none;stroke-dashoffset:0;stroke-opacity:1;marker:none;enable-background:accumulate"
       d="m -351.4328,-693.23315 a 50,50 0 0 1 18.30127,-68.30127 50,50 0 0 1 68.30127,18.30127 50,50 0 0 1 -18.30127,68.30127 50,50 0 0 1 -68.30127,-18.30127 z"
       id="path4247" />
    <path
       style="color:#000000;display:inline;overflow:visible;visibility:visible;opacity:1;fill:#2a363b;fill-opacity:1;fill-rule:evenodd;stroke:none;stroke-width:10;stroke-linecap:round;stroke-linejoin:round;stroke-miterlimit:4;stroke-dasharray:none;stroke-dashoffset:0;stroke-opacity:1;marker:none;enable-background:accumulate"
       d="m -358.13153,-818.23315 50,0 0,100 -50,0 z"
       id="rect4253"
       inkscape:connector-curvature="0"
       sodipodi:nodetypes="ccccc" />
    <path
       style="color:#000000;display:inline;overflow:visible;visibility:visible;opacity:1;fill:#2a363b;fill-opacity:1;fill-rule:evenodd;stroke:none;stroke-width:10;stroke-linecap:round;stroke-linejoin:round;stroke-miterlimit:4;stroke-dasharray:none;stroke-dashoffset:0;stroke-opacity:1;marker:none;enable-background:accumulate"
       d="m -351.4328,-793.23315 a 50,50 0 0 1 18.30127,-68.30127 50,50 0 0 1 68.30127,18.30127 50,50 0 0 1 -18.30127,68.30127 50,50 0 0 1 -68.30127,-18.30127 z"
       id="path4249"
       inkscape:connector-curvature="0"
       inkscape:transform-center-y="-50"
       inkscape:transform-center-x="86.60254" />
    <path
       sodipodi:nodetypes="ccccc"
       inkscape:connector-curvature="0"
       id="path4256"
       d="m -134.92645,-818.23315 50.000001,0 0,100 -50.000001,0 z"
       style="color:#000000;display:inline;overflow:visible;visibility:visible;opacity:1;fill:#2a363b;fill-opacity:1;fill-rule:evenodd;stroke:none;stroke-width:10;stroke-linecap:round;stroke-linejoin:round;stroke-miterlimit:4;stroke-dasharray:none;stroke-dashoffset:0;stroke-opacity:1;marker:none;enable-background:accumulate" />
    <path
       inkscape:connector-curvature="0"
       id="path4245"
       d="m -91.62518,-743.23315 a 50,50 0 0 1 -18.30127,68.30127 50,50 0 0 1 -68.30127,-18.30127 50,50 0 0 1 18.30127,-68.30127 50,50 0 0 1 68.30127,18.30127 z"
       style="color:#000000;display:inline;overflow:visible;visibility:visible;opacity:1;fill:#2a363b;fill-opacity:1;fill-rule:evenodd;stroke:none;stroke-width:10;stroke-linecap:round;stroke-linejoin:round;stroke-miterlimit:4;stroke-dasharray:none;stroke-dashoffset:0;stroke-opacity:1;marker:none;enable-background:accumulate" />
    <path
       inkscape:transform-center-y="-50"
       inkscape:transform-center-x="-86.60254"
       inkscape:connector-curvature="0"
       style="color:#000000;display:inline;overflow:visible;visibility:visible;opacity:1;fill:#2a363b;fill-opacity:1;fill-rule:evenodd;stroke:none;stroke-width:10;stroke-linecap:round;stroke-linejoin:round;stroke-miterlimit:4;stroke-dasharray:none;stroke-dashoffset:0;stroke-opacity:1;marker:none;enable-background:accumulate"
       d="m -441.62518,-843.23315 a 50,50 0 0 1 -18.30127,68.30127 50,50 0 0 1 -68.30127,-18.30127 50,50 0 0 1 18.30127,-68.30127 50,50 0 0 1 68.30127,18.30127 z"
       id="path4260" />
    <path
       id="path4262"
       d="m -701.4328,-693.23315 a 50,50 0 0 1 18.30127,-68.30127 50,50 0 0 1 68.30127,18.30127 50,50 0 0 1 -18.30127,68.30127 50,50 0 0 1 -68.30127,-18.30127 z"
       style="color:#000000;display:inline;overflow:visible;visibility:visible;opacity:1;fill:#2a363b;fill-opacity:1;fill-rule:evenodd;stroke:none;stroke-width:10;stroke-linecap:round;stroke-linejoin:round;stroke-miterlimit:4;stroke-dasharray:none;stroke-dashoffset:0;stroke-opacity:1;marker:none;enable-background:accumulate"
       inkscape:connector-curvature="0"
       inkscape:transform-center-x="86.60254"
       inkscape:transform-center-y="50" />
    <path
       style="color:#000000;display:inline;overflow:visible;visibility:visible;opacity:1;fill:#2a363b;fill-opacity:1;fill-rule:evenodd;stroke:none;stroke-width:10;stroke-linecap:round;stroke-linejoin:round;stroke-miterlimit:4;stroke-dasharray:none;stroke-dashoffset:0;stroke-opacity:1;marker:none;enable-background:accumulate"
       d="m -614.83026,-793.23315 a 50,50 0 0 1 68.30127,-18.30127 50,50 0 0 1 18.30127,68.30127 50,50 0 0 1 -68.30127,18.30127 50,50 0 0 1 -18.30127,-68.30127 z"
       id="path4264"
       inkscape:connector-curvature="0" />
    <path
       inkscape:transform-center-x="86.60254"
       inkscape:transform-center-y="-50"
       inkscape:connector-curvature="0"
       id="path4266"
       d="m -701.4328,-793.23315 a 50,50 0 0 1 18.30127,-68.30127 50,50 0 0 1 68.30127,18.30127 50,50 0 0 1 -18.30127,68.30127 50,50 0 0 1 -68.30127,-18.30127 z"
       style="color:#000000;display:inline;overflow:visible;visibility:visible;opacity:1;fill:#355c7d;fill-opacity:1;fill-rule:evenodd;stroke:none;stroke-width:10;stroke-linecap:round;stroke-linejoin:round;stroke-miterlimit:4;stroke-dasharray:none;stroke-dashoffset:0;stroke-opacity:1;marker:none;enable-background:accumulate" />
    <path
       style="color:#000000;display:inline;overflow:visible;visibility:visible;opacity:1;fill:#355c7d;fill-opacity:1;fill-rule:evenodd;stroke:none;stroke-width:10;stroke-linecap:round;stroke-linejoin:round;stroke-miterlimit:4;stroke-dasharray:none;stroke-dashoffset:0;stroke-opacity:1;marker:none;enable-background:accumulate"
       d="m -441.62518,-743.23315 a 50,50 0 0 1 -18.30127,68.30127 50,50 0 0 1 -68.30127,-18.30127 50,50 0 0 1 18.30127,-68.30127 50,50 0 0 1 68.30127,18.30127 z"
       id="path4268"
       inkscape:connector-curvature="0" />
    <path
       style="color:#000000;display:inline;overflow:visible;visibility:visible;opacity:1;fill:#355c7d;fill-opacity:1;fill-rule:evenodd;stroke:none;stroke-width:10;stroke-linecap:round;stroke-linejoin:round;stroke-miterlimit:4;stroke-dasharray:none;stroke-dashoffset:0;stroke-opacity:1;marker:none;enable-background:accumulate"
       d="m -106.34757,-734.73315 a 33.000017,33.000017 0 0 1 -12.07888,45.07893 33.000017,33.000017 0 0 1 -45.07893,-12.07893 33.000017,33.000017 0 0 1 12.07893,-45.07893 33.000017,33.000017 0 0 1 45.07888,12.07893 z"
       id="path4282"
       inkscape:connector-curvature="0" />
    <path
       inkscape:transform-center-x="57.157711"
       inkscape:transform-center-y="-33.000018"
       inkscape:connector-curvature="0"
       id="path4284"
       d="m -336.71046,-801.73315 a 33.000018,33.000018 0 0 1 12.07893,-45.07893 33.000018,33.000018 0 0 1 45.07893,12.07893 33.000018,33.000018 0 0 1 -12.07893,45.07893 33.000018,33.000018 0 0 1 -45.07893,-12.07893 z"
       style="color:#000000;display:inline;overflow:visible;visibility:visible;opacity:1;fill:#355c7d;fill-opacity:1;fill-rule:evenodd;stroke:none;stroke-width:10;stroke-linecap:round;stroke-linejoin:round;stroke-miterlimit:4;stroke-dasharray:none;stroke-dashoffset:0;stroke-opacity:1;marker:none;enable-background:accumulate" />
    <path
       inkscape:connector-curvature="0"
       id="path4251"
       d="m -264.83026,-793.23315 a 50,50 0 0 1 68.30127,-18.30127 50,50 0 0 1 18.30127,68.30127 50,50 0 0 1 -68.30127,18.30127 50,50 0 0 1 -18.30127,-68.30127 z"
       style="color:#000000;display:inline;overflow:visible;visibility:visible;opacity:1;fill:#2a363b;fill-opacity:1;fill-rule:evenodd;stroke:none;stroke-width:10;stroke-linecap:round;stroke-linejoin:round;stroke-miterlimit:4;stroke-dasharray:none;stroke-dashoffset:0;stroke-opacity:1;marker:none;enable-background:accumulate" />
    <path
       sodipodi:nodetypes="ccccc"
       inkscape:connector-curvature="0"
       id="path4258"
       d="m -159.92645,-861.53442 50,86.60254 -86.60254,50 -50,-86.60254 z"
       style="color:#000000;display:inline;overflow:visible;visibility:visible;opacity:1;fill:#2a363b;fill-opacity:1;fill-rule:evenodd;stroke:none;stroke-width:10;stroke-linecap:round;stroke-linejoin:round;stroke-miterlimit:4;stroke-dasharray:none;stroke-dashoffset:0;stroke-opacity:1;marker:none;enable-background:accumulate"
       inkscape:transform-center-y="-25"
       inkscape:transform-center-x="-43.30127" />
    <path
       sodipodi:nodetypes="ccccc"
       inkscape:connector-curvature="0"
       id="path4294"
       d="m -126.14428,-620.07781 13.83315,-9.88131 -204.60257,-286.42937 -13.83316,9.88131 z"
       style="color:#000000;display:inline;overflow:visible;visibility:visible;opacity:1;fill:#2a363b;fill-opacity:1;fill-rule:evenodd;stroke:none;stroke-width:10;stroke-linecap:round;stroke-linejoin:round;stroke-miterlimit:4;stroke-dasharray:none;stroke-dashoffset:0;stroke-opacity:1;marker:none;enable-background:accumulate" />
  </g>
</svg>
