<?xml version="1.0" encoding="UTF-8" standalone="no"?>
<svg
   xmlns:dc="http://purl.org/dc/elements/1.1/"
   xmlns:cc="http://creativecommons.org/ns#"
   xmlns:rdf="http://www.w3.org/1999/02/22-rdf-syntax-ns#"
   xmlns:svg="http://www.w3.org/2000/svg"
   xmlns="http://www.w3.org/2000/svg"
   xmlns:sodipodi="http://sodipodi.sourceforge.net/DTD/sodipodi-0.dtd"
   xmlns:inkscape="http://www.inkscape.org/namespaces/inkscape"
   width="72.248878mm"
   height="72.248886mm"
   viewBox="0 0 255.99996 255.99999"
   id="svg4693"
   version="1.1"
   inkscape:version="0.91 r13725"
   sodipodi:docname="favicon.svg">
  <sodipodi:namedview
     pagecolor="#ffffff"
     bordercolor="#666666"
     borderopacity="1"
     objecttolerance="10"
     gridtolerance="10"
     guidetolerance="10"
     inkscape:pageopacity="0"
     inkscape:pageshadow="2"
     inkscape:window-width="1280"
     inkscape:window-height="756"
     id="namedview4210"
     showgrid="false"
     inkscape:zoom="1.4142136"
     inkscape:cx="63.987431"
     inkscape:cy="168.89672"
     inkscape:window-x="0"
     inkscape:window-y="44"
     inkscape:window-maximized="1"
     inkscape:current-layer="svg4693" />
  <defs
     id="defs4695" />
  <metadata
     id="metadata4698">
    <rdf:RDF>
      <cc:Work
         rdf:about="">
        <dc:format>image/svg+xml</dc:format>
        <dc:type
           rdf:resource="http://purl.org/dc/dcmitype/StillImage" />
        <dc:title></dc:title>
      </cc:Work>
    </rdf:RDF>
  </metadata>
  <path
     style="fill:none;fill-rule:evenodd;stroke:#4f4e4d;stroke-width:4;stroke-linecap:butt;stroke-linejoin:miter;stroke-miterlimit:4;stroke-dasharray:none;stroke-opacity:1"
     d="m 50,247.99998 0,-25"
     id="path4457" />
  <path
     style="fill:none;fill-rule:evenodd;stroke:#4f4e4d;stroke-width:4;stroke-linecap:butt;stroke-linejoin:miter;stroke-miterlimit:4;stroke-dasharray:none;stroke-opacity:1"
     d="m 205.99996,247.99998 0,-25"
     id="path4459" />
  <path
     id="path4461"
     style="opacity:1;fill:none;stroke:#4f4e4d;stroke-width:8;stroke-miterlimit:4;stroke-dasharray:none;stroke-opacity:1"
     d="m 130,120.99998 c 23.99996,0 29.99996,7.1711 29.99996,16 l 0,36 5,10 51,0 c 17.6574,0 32,14.3428 32,32 l 0,33 -239.99996,0 0,-33 c 0,-17.6572 14.3426,-32 32,-32 l 51,0 5,-10 0,-36 c 0,-8.8289 6,-16 30,-16" />
  <path
     id="path4465"
     d="m 128,179.99998 0,-35"
     style="fill:none;fill-rule:evenodd;stroke:#4f4e4d;stroke-width:4;stroke-linecap:butt;stroke-linejoin:miter;stroke-miterlimit:4;stroke-dasharray:none;stroke-opacity:1" />
  <path
     style="opacity:1;fill:none;stroke:#4f4e4d;stroke-width:4;stroke-miterlimit:4;stroke-dasharray:none;stroke-opacity:1"
     d="m 146,139.99998 c 0,0 -8,5 -18,5 -10,0 -18,-5 -18,-5"
     id="path4467" />
  <path
     id="path4473"
     style="opacity:1;fill:none;stroke:#4f4e4d;stroke-width:8;stroke-miterlimit:4;stroke-dasharray:none;stroke-opacity:1"
     d="m 128,7.9999825 c 39.72907,0 71.99996,32.2713605 71.99996,72.0000005 6,0 12,9.0677 12,19 0,9.932297 -12,28.999997 -18,28.999997 0,15 -36,52 -65.99996,52 -30,0 -66,-37 -66,-52 -6,0 -18.0001,-19.0677 -18,-28.999997 0,-9.9323 6,-19 12,-19 0,-39.72864 32.2708,-72.0000005 72,-72.0000005 z" />
  <path
     id="path4475"
     d="m 203,130.99998 c 0,3.3107 -2.6893,6 -6,6 -3.3108,0 -6.0001,-2.6893 -6,-6 0,-3.3107 2.6892,-6 6,-6 3.3107,0 6,2.6893 6,6 z"
     style="opacity:1;fill:#000000;fill-opacity:0;stroke:#4f4e4d;stroke-width:4;stroke-miterlimit:4;stroke-dasharray:none;stroke-opacity:1" />
  <path
     style="opacity:1;fill:none;fill-opacity:1;stroke:#4f4e4d;stroke-width:8;stroke-miterlimit:4;stroke-dasharray:none;stroke-opacity:1"
     d="m 169.99996,182.99998 c 1e-5,17.657 -24.34296,22 -41.99996,22 -17.6571,0 -42.0001,-4.343 -42,-22"
     id="path4524" />
  <path
     style="opacity:1;fill:#000000;fill-opacity:0;stroke:#4f4e4d;stroke-width:4;stroke-miterlimit:4;stroke-dasharray:none;stroke-opacity:1"
     d="m 192,96.99998 c 3.3107,0 6,2.6893 6,6 0,3.3107 -2.6893,6 -6,6"
     id="path4222" />
  <path
     id="path4224"
     d="m 64,108.99998 c -3.3108,0 -6.0001,-2.6893 -6,-6 0,-3.3107 2.6892,-6 6,-6"
     style="opacity:1;fill:#000000;fill-opacity:0;stroke:#4f4e4d;stroke-width:4;stroke-miterlimit:4;stroke-dasharray:none;stroke-opacity:1" />
  <path
     id="path4212"
     d="m 118,65.99998 -36,0"
     style="opacity:1;fill:none;stroke:#4f4e4d;stroke-width:8;stroke-miterlimit:4;stroke-dasharray:none;stroke-opacity:1"
     inkscape:connector-curvature="0"
     sodipodi:nodetypes="cc" />
  <path
     sodipodi:nodetypes="cc"
     inkscape:connector-curvature="0"
     style="opacity:1;fill:none;stroke:#4f4e4d;stroke-width:8;stroke-miterlimit:4;stroke-dasharray:none;stroke-opacity:1"
     d="m 174,65.99998 -36,0"
     id="path4214" />
  <path
     style="opacity:1;fill:none;fill-opacity:1;stroke:#4f4e4d;stroke-width:4;stroke-miterlimit:4;stroke-dasharray:none;stroke-opacity:1"
     d="m 140,91.99998 c 0,-8.82854 7.1712,-16 16,-16 8.8285,0 16,7.17146 16,16 0,8.8285 -7.1715,16 -16,16"
     id="path4220"
     inkscape:connector-curvature="0"
     sodipodi:nodetypes="cssc" />
  <path
     inkscape:connector-curvature="0"
     id="path4223"
     d="m 100,107.99998 c -8.8288,0 -16.0003,-7.1715 -16,-16 0,-8.82854 7.1712,-16 16,-16 8.8285,0 16,7.17146 16,16"
     style="opacity:1;fill:none;fill-opacity:1;stroke:#4f4e4d;stroke-width:4;stroke-miterlimit:4;stroke-dasharray:none;stroke-opacity:1"
     sodipodi:nodetypes="ccsc" />
  <path
     inkscape:connector-curvature="0"
     id="path4225"
     d="m 109,91.999983 c 0,2.207097 -1.7929,3.999997 -4,3.999997 -2.2072,0 -4.0001,-1.7929 -4,-3.999997"
     style="opacity:1;fill:#000000;stroke:#4f4e4d;stroke-width:8;stroke-miterlimit:4;stroke-dasharray:none;stroke-opacity:1" />
  <path
     inkscape:connector-curvature="0"
     style="opacity:1;fill:#000000;stroke:#4f4e4d;stroke-width:8;stroke-miterlimit:4;stroke-dasharray:none;stroke-opacity:1"
     d="m 154.99996,91.999983 c 1e-5,2.207097 -1.79285,3.999997 -4,3.999997 -2.20716,0 -4.00006,-1.7929 -3.99996,-3.999997"
     id="path4227" />
  <path
     inkscape:connector-curvature="0"
     style="opacity:1;fill:#000000;stroke:#4f4e4d;stroke-width:8;stroke-miterlimit:4;stroke-dasharray:none;stroke-opacity:1"
     d="m 101,91.999983 c 0,-2.20715 1.7928,-4 4,-4 2.2071,0 4,1.79285 4,4"
     id="path4229" />
  <path
     inkscape:connector-curvature="0"
     id="path4231"
     d="m 147,91.999983 c 0,-2.20715 1.7928,-4 3.99996,-4 2.20715,0 4,1.79285 4,4"
     style="opacity:1;fill:#000000;stroke:#4f4e4d;stroke-width:8;stroke-miterlimit:4;stroke-dasharray:none;stroke-opacity:1" />
</svg>
