<svg xmlns="http://www.w3.org/2000/svg" viewBox="0 0 477 414">
  <path d="M17.5 62c-5.523 0-10 4.477-10 10s4.477 10 10 10h45c5.523 0 10 4.477 10 10s-4.477 10-10 10H60c-5.523 0-10 4.477-10 10s4.477 10 10 10h30c5.523 0 10 4.477 10 10s-4.477 10-10 10H32.5c-5.523 0-10 4.477-10 10s4.477 10 10 10H50c5.523 0 10 4.477 10 10s-4.477 10-10 10-10 4.477-10 10 4.477 10 10 10h15c5.523 0 10 4.477 10 10s-4.477 10-10 10H40c-5.523 0-10 4.477-10 10s4.477 10 10 10h45c5.523 0 10 4.477 10 10s-4.477 10-10 10H65c-5.523 0-10 4.477-10 10s4.477 10 10 10 10 4.477 10 10-4.477 10-10 10H50c-5.523 0-10 4.477-10 10s4.477 10 10 10h67.5c5.523 0 10 4.477 10 10s-4.477 10-10 10H105c-5.523 0-10 4.477-10 10s4.477 10 10 10h342.5c5.523 0 10-4.477 10-10s-4.477-10-10-10h-70c-5.523 0-10-4.477-10-10s4.477-10 10-10H390c5.523 0 10-4.477 10-10s-4.477-10-10-10h-30c-5.523 0-10-4.477-10-10s4.477-10 10-10h67.5c5.523 0 10-4.477 10-10s-4.477-10-10-10H420c-5.523 0-10-4.477-10-10s4.477-10 10-10 10-4.477 10-10-4.477-10-10-10h-15c-5.523 0-10-4.477-10-10s4.477-10 10-10h25c5.523 0 10-4.477 10-10s-4.477-10-10-10h-35c-5.523 0-10-4.477-10-10s4.477-10 10-10h40c5.523 0 10-4.477 10-10s-4.477-10-10-10-10-4.477-10-10 4.477-10 10-10h15c5.523 0 10-4.477 10-10s-4.477-10-10-10h-67.5c-5.523 0-10-4.477-10-10s4.477-10 10-10H405c5.523 0 10-4.477 10-10s-4.477-10-10-10z" color="#000" overflow="visible" fill="#3c383f" fill-rule="evenodd"/>
  <path d="M15 262c-5.523 0-10 4.477-10 10s4.477 10 10 10h20c5.523 0 10-4.477 10-10s-4.477-10-10-10zM18 182c-5.523 0-10 4.477-10 10s4.477 10 10 10h2c5.523 0 10-4.477 10-10s-4.477-10-10-10zM10 102c-5.523 0-10 4.477-10 10s4.477 10 10 10h20c5.523 0 10-4.477 10-10s-4.477-10-10-10zM45 342c-5.523 0-10 4.477-10 10s4.477 10 10 10h30c5.523 0 10-4.477 10-10s-4.477-10-10-10zM13 342c-5.523 0-10 4.477-10 10s4.477 10 10 10h2c5.523 0 10-4.477 10-10s-4.477-10-10-10zM435 62c-5.523 0-10 4.477-10 10s4.477 10 10 10h20c5.523 0 10-4.477 10-10s-4.477-10-10-10zM465 142c-5.523 0-10 4.477-10 10s4.477 10 10 10h2c5.523 0 10-4.477 10-10s-4.477-10-10-10zM450 222c-5.523 0-10 4.477-10 10s4.477 10 10 10h15c5.523 0 10-4.477 10-10s-4.477-10-10-10zM420 302c-5.523 0-10 4.477-10 10s4.477 10 10 10h15c5.523 0 10-4.477 10-10s-4.477-10-10-10zM465 302c-5.523 0-10 4.477-10 10s4.477 10 10 10h1c5.523 0 10-4.477 10-10s-4.477-10-10-10z" color="#000" overflow="visible" fill="#3c383f" fill-rule="evenodd"/>
  <path style="isolation:auto;mix-blend-mode:normal" d="M165 326v34c0 29.823 31.34 54 70 54v-71z" color="#000" overflow="visible" solid-color="#000000" fill="#e2e0e3"/>
  <path style="isolation:auto;mix-blend-mode:normal" d="M375 177l-10-10v41.206L347.233 243H365l10-10z" color="#000" overflow="visible" solid-color="#000000" fill="#c9c5cb"/>
  <path d="M235 0v343l70-17 60-118v-78C365 55 302 0 235 0z" style="isolation:auto;mix-blend-mode:normal" color="#000" overflow="visible" solid-color="#000000" fill="#c9c5cb"/>
  <path d="M305 326v34c0 29.823-31.34 54-70 54v-71z" style="isolation:auto;mix-blend-mode:normal" color="#000" overflow="visible" solid-color="#000000" fill="#c9c5cb"/>
  <path d="M95 177l10-10v41l17.872 35H105l-10-10z" style="isolation:auto;mix-blend-mode:normal" color="#000" overflow="visible" solid-color="#000000" fill="#e2e0e3"/>
  <path style="isolation:auto;mix-blend-mode:normal" d="M235 0v343l-70-17-60-118v-78C105 55 168 0 235 0z" color="#000" overflow="visible" solid-color="#000000" fill="#e2e0e3"/>
  <path d="M265 215l-30-18-30 18z" style="isolation:auto;mix-blend-mode:normal" color="#000" overflow="visible" solid-color="#000000" fill="#7d7483"/>
  <path style="isolation:auto;mix-blend-mode:normal" d="M105 167v41l60 118V205z" color="#000" overflow="visible" solid-color="#000000" fill="#c9c5cb"/>
  <path style="isolation:auto;mix-blend-mode:normal" d="M146 127l-13.75 22h10l3.75-6h72.09l2.91-16z" color="#000" overflow="visible" solid-color="#000000" fill="#56505a"/>
  <path style="isolation:auto;mix-blend-mode:normal" d="M305 326l-70 54v-37z" color="#000" overflow="visible" solid-color="#000000" fill="#a39ca7"/>
  <path d="M324 127l13.75 22h-10l-3.75-6h-72.09L249 127z" style="isolation:auto;mix-blend-mode:normal" color="#000" overflow="visible" solid-color="#000000" fill="#56505a"/>
  <path d="M235 137l-14-10-16 88 30-18z" style="isolation:auto;mix-blend-mode:normal" color="#000" overflow="visible" solid-color="#000000" fill="#c9c5cb"/>
  <path style="isolation:auto;mix-blend-mode:normal" d="M235 137l14-10 16 88-30-18z" color="#000" overflow="visible" solid-color="#000000" fill="#a39ca7"/>
  <path style="isolation:auto;mix-blend-mode:normal" d="M205 215l-40 35v76l70 17v-65h-12v12c0 10.5-8.5 19-19 19s-19-8.5-19-19v-23l20-17h25v-35z" color="#000" overflow="visible" solid-color="#000000" fill="#56505a"/>
  <path style="isolation:auto;mix-blend-mode:normal" d="M249 127l-14 10-14-10z" color="#000" overflow="visible" solid-color="#000000" fill="#c9c5cb"/>
  <path style="isolation:auto;mix-blend-mode:normal" d="M279.706 262.5L285 267H185l5.294-4.5z" color="#000" overflow="visible" solid-color="#000000" fill="#7d7483"/>
  <path d="M279.706 262.5L265 250h-60l-14.706 12.5z" style="isolation:auto;mix-blend-mode:normal" color="#000" overflow="visible" solid-color="#000000" fill="#a39ca7"/>
  <path style="isolation:auto;mix-blend-mode:normal" d="M387 152l-22 15 10 10z" color="#000" overflow="visible" solid-color="#000000" fill="#7d7483"/>
  <path style="isolation:auto;mix-blend-mode:normal" d="M379.5 147L365 157v10l22-15z" color="#000" overflow="visible" solid-color="#000000" fill="#c9c5cb"/>
  <path d="M375 188l-10-10v30zM95 188l10-10v30z" style="isolation:auto;mix-blend-mode:normal" color="#000" overflow="visible" solid-color="#000000" fill="#7d7483"/>
  <path d="M235 380l-70-54 70 17z" style="isolation:auto;mix-blend-mode:normal" color="#000" overflow="visible" solid-color="#000000" fill="#c9c5cb"/>
  <path d="M83 152l22 15-10 10z" style="isolation:auto;mix-blend-mode:normal" color="#000" overflow="visible" solid-color="#000000" fill="#7d7483"/>
  <path d="M90.5 147l14.5 10v10l-22-15z" style="isolation:auto;mix-blend-mode:normal" color="#000" overflow="visible" solid-color="#000000" fill="#c9c5cb"/>
  <path d="M105.105 243L105 208l17.872 35zM365 167v41l-60 118V205z" style="isolation:auto;mix-blend-mode:normal" color="#000" overflow="visible" solid-color="#000000" fill="#a39ca7"/>
  <path style="isolation:auto;mix-blend-mode:normal" d="M365 243l.105-35-17.872 35z" color="#000" overflow="visible" solid-color="#000000" fill="#7d7483"/>
  <path style="isolation:auto;mix-blend-mode:normal" d="M235 0s109 0 109 127l21 40v-37C365 55 302 0 235 0z" color="#000" overflow="visible" solid-color="#000000" fill="#b0aab3"/>
  <path d="M235 0S126 0 126 127l-21 40v-37C105 55 168 0 235 0z" style="isolation:auto;mix-blend-mode:normal" color="#000" overflow="visible" solid-color="#000000" fill="#c9c5cb"/>
  <path d="M265 215l40 35v76l-70 17v-65h12v12c0 10.5 8.5 19 19 19s19-8.5 19-19v-23l-20-17h-25v-35z" style="isolation:auto;mix-blend-mode:normal" color="#000" overflow="visible" solid-color="#000000" fill="#3c383f"/>
  <path style="isolation:auto;mix-blend-mode:normal" d="M251.91 143l1.09 6 52 56 32.75-56h-10l-3.75-6z" color="#000" overflow="visible" solid-color="#000000" fill="#a39ca7"/>
  <path style="isolation:auto;mix-blend-mode:normal" d="M291 168l36.75-19H253z" color="#000" overflow="visible" solid-color="#000000" fill="#3c383f"/>
  <path d="M218.09 143l-1.09 6-52 56-32.75-56h10l3.75-6z" style="isolation:auto;mix-blend-mode:normal" color="#000" overflow="visible" solid-color="#000000" fill="#c9c5cb"/>
  <path d="M179 168l-36.75-19H217z" style="isolation:auto;mix-blend-mode:normal" color="#000" overflow="visible" solid-color="#000000" fill="#3c383f"/>
  <path style="isolation:auto;mix-blend-mode:normal" d="M235 215h-5v35h5z" color="#000" overflow="visible" solid-color="#000000" fill="#c9c5cb"/>
  <path d="M240 215h-5v35h5zM365 231v4c4.418 0 8 3.582 8 8s-3.582 8-8 8v4c6.627 0 12-5.373 12-12s-5.373-12-12-12z" style="isolation:auto;mix-blend-mode:normal" color="#000" overflow="visible" solid-color="#000000" fill="#e2e0e3"/>
  <path style="isolation:auto;mix-blend-mode:normal" d="M353 243c0 6.627 5.373 12 12 12v-4c-4.418 0-8-3.582-8-8z" color="#000" overflow="visible" solid-color="#000000" fill="#a39ca7"/>
</svg>
