<svg xmlns="http://www.w3.org/2000/svg" >
  <symbol viewBox="0 0 32 32" id="icon-prt">
    <path
       style="fill:none;fill-rule:evenodd;stroke:#56505a;stroke-width:2;stroke-linecap:round;stroke-linejoin:miter;stroke-miterlimit:4;stroke-dasharray:none;stroke-opacity:1"
       d="m 3,31 26,0" />
    <path
       style="fill:none;fill-rule:evenodd;stroke:#56505a;stroke-width:2;stroke-linecap:round;stroke-linejoin:miter;stroke-miterlimit:4;stroke-dasharray:none;stroke-opacity:1"
       d="M 3,5 29,5" />
    <path
       style="fill:none;fill-rule:evenodd;stroke:#56505a;stroke-width:2;stroke-linecap:round;stroke-linejoin:miter;stroke-miterlimit:4;stroke-dasharray:none;stroke-opacity:1"
       d="M 1,29 1,7" />
    <path
       style="fill:none;fill-rule:evenodd;stroke:#56505a;stroke-width:2;stroke-linecap:round;stroke-linejoin:miter;stroke-miterlimit:4;stroke-dasharray:none;stroke-opacity:1"
       d="M 31,29 31,7" />
    <path
       style="fill:none;fill-rule:evenodd;stroke:#56505a;stroke-width:1;stroke-linecap:butt;stroke-linejoin:miter;stroke-miterlimit:4;stroke-dasharray:none;stroke-opacity:1"
       d="m 9.5,6 0,-3.5" />
    <path
       style="fill:none;fill-rule:evenodd;stroke:#56505a;stroke-width:1;stroke-linecap:butt;stroke-linejoin:miter;stroke-miterlimit:4;stroke-dasharray:none;stroke-opacity:1"
       d="m 22.5,6 0,-3.5" />
    <path
       d="m 11.5,0.5 9,0"
       style="fill:none;fill-rule:evenodd;stroke:#56505a;stroke-width:1;stroke-linecap:butt;stroke-linejoin:miter;stroke-miterlimit:4;stroke-dasharray:none;stroke-opacity:1" />
    <path
       style="fill:none;fill-rule:evenodd;stroke:#56505a;stroke-width:1;stroke-linecap:butt;stroke-linejoin:miter;stroke-miterlimit:4;stroke-dasharray:none;stroke-opacity:1"
       d="m 18,16 10.5,0" />
    <path
       d="M 3.5,16 14,16"
       style="fill:none;fill-rule:evenodd;stroke:#56505a;stroke-width:1;stroke-linecap:butt;stroke-linejoin:miter;stroke-miterlimit:4;stroke-dasharray:none;stroke-opacity:1" />
    <path
       d="m 9.5,2.5 c 0,-1.1046 0.8954,-2 2,-2"
       style="opacity:1;fill:none;stroke:#56505a;stroke-width:1;stroke-miterlimit:4;stroke-dasharray:none;stroke-opacity:1" />
    <path
       style="opacity:1;fill:none;stroke:#56505a;stroke-width:1;stroke-miterlimit:4;stroke-dasharray:none;stroke-opacity:1"
       d="m 20.5,0.5 c 1.10457,0 2,0.8954 2,2" />
    <path
       d="m 13.5,13 0,7"
       style="fill:none;fill-rule:evenodd;stroke:#56505a;stroke-width:1;stroke-linecap:butt;stroke-linejoin:miter;stroke-miterlimit:4;stroke-dasharray:none;stroke-opacity:1" />
    <path
       style="fill:none;fill-rule:evenodd;stroke:#56505a;stroke-width:1;stroke-linecap:butt;stroke-linejoin:miter;stroke-miterlimit:4;stroke-dasharray:none;stroke-opacity:1"
       d="m 18.5,13 0,7" />
    <path
       d="m 14,20 4,0"
       style="fill:none;fill-rule:evenodd;stroke:#56505a;stroke-width:2;stroke-linecap:round;stroke-linejoin:miter;stroke-miterlimit:4;stroke-dasharray:none;stroke-opacity:1" />
    <path
       style="fill:none;fill-rule:evenodd;stroke:#56505a;stroke-width:2;stroke-linecap:round;stroke-linejoin:miter;stroke-miterlimit:4;stroke-dasharray:none;stroke-opacity:1"
       d="m 14,13 4,0" />
    <path
       d="M 1,7 C 1,5.8955 1.8954,5 3,5"
       style="opacity:1;fill:none;stroke:#56505a;stroke-width:2;stroke-miterlimit:4;stroke-dasharray:none;stroke-opacity:1" />
    <path
       style="opacity:1;fill:none;stroke:#56505a;stroke-width:2;stroke-miterlimit:4;stroke-dasharray:none;stroke-opacity:1"
       d="m 29,5 c 1.104569,0 2,0.8954 2,2" />
    <path
       style="opacity:1;fill:none;stroke:#56505a;stroke-width:2;stroke-miterlimit:4;stroke-dasharray:none;stroke-opacity:1"
       d="M 3,31 C 1.895431,31 1,30.1046 1,29" />
    <path
       d="m 31,29 c 0,1.1046 -0.8954,2 -2,2"
       style="opacity:1;fill:none;stroke:#56505a;stroke-width:2;stroke-miterlimit:4;stroke-dasharray:none;stroke-opacity:1" />
    <path
       style="opacity:1;fill:none;stroke:#56505a;stroke-width:1;stroke-miterlimit:4;stroke-dasharray:none;stroke-opacity:1"
       d="m 1.5,14 c 0,1.1046 0.8954,2 2,2" />
    <path
       d="m 28.5,16 c 1.10457,0 2,-0.8954 2,-2"
       style="opacity:1;fill:none;stroke:#56505a;stroke-width:1;stroke-miterlimit:4;stroke-dasharray:none;stroke-opacity:1" />
    <path
       style="fill:none;fill-rule:evenodd;stroke:#56505a;stroke-width:1;stroke-linecap:butt;stroke-linejoin:miter;stroke-miterlimit:4;stroke-dasharray:none;stroke-opacity:1"
       d="m 3,27 2,0" />
    <path
       d="m 6,27 2,0"
       style="fill:none;fill-rule:evenodd;stroke:#56505a;stroke-width:1;stroke-linecap:butt;stroke-linejoin:miter;stroke-miterlimit:4;stroke-dasharray:none;stroke-opacity:1" />
    <path
       style="fill:none;fill-rule:evenodd;stroke:#56505a;stroke-width:1;stroke-linecap:butt;stroke-linejoin:miter;stroke-miterlimit:4;stroke-dasharray:none;stroke-opacity:1"
       d="m 9,27 2,0" />
    <path
       d="m 12,27 2,0"
       style="fill:none;fill-rule:evenodd;stroke:#56505a;stroke-width:1;stroke-linecap:butt;stroke-linejoin:miter;stroke-miterlimit:4;stroke-dasharray:none;stroke-opacity:1" />
    <path
       style="fill:none;fill-rule:evenodd;stroke:#56505a;stroke-width:1;stroke-linecap:butt;stroke-linejoin:miter;stroke-miterlimit:4;stroke-dasharray:none;stroke-opacity:1"
       d="m 15,27 2,0" />
    <path
       d="m 18,27 2,0"
       style="fill:none;fill-rule:evenodd;stroke:#56505a;stroke-width:1;stroke-linecap:butt;stroke-linejoin:miter;stroke-miterlimit:4;stroke-dasharray:none;stroke-opacity:1" />
    <path
       style="fill:none;fill-rule:evenodd;stroke:#56505a;stroke-width:1;stroke-linecap:butt;stroke-linejoin:miter;stroke-miterlimit:4;stroke-dasharray:none;stroke-opacity:1"
       d="m 24,27 2,0" />
    <path
       d="m 21,27 2,0"
       style="fill:none;fill-rule:evenodd;stroke:#56505a;stroke-width:1;stroke-linecap:butt;stroke-linejoin:miter;stroke-miterlimit:4;stroke-dasharray:none;stroke-opacity:1" />
    <path
       d="m 27,27 2,0"
       style="fill:none;fill-rule:evenodd;stroke:#56505a;stroke-width:1;stroke-linecap:butt;stroke-linejoin:miter;stroke-miterlimit:4;stroke-dasharray:none;stroke-opacity:1" />
    <path
       d="m 15,16 2,0"
       style="fill:none;fill-rule:evenodd;stroke:#56505a;stroke-width:1;stroke-linecap:butt;stroke-linejoin:miter;stroke-miterlimit:4;stroke-dasharray:none;stroke-opacity:1" />
  </symbol>
  <symbol viewBox="0 0 32 32" id="icon-web">
    <path
       d="m 3,25 26,0"
       style="fill:none;fill-rule:evenodd;stroke:#56505a;stroke-width:2;stroke-linecap:round;stroke-linejoin:miter;stroke-miterlimit:4;stroke-dasharray:none;stroke-opacity:1" />
    <path
       d="M 3,1 29,1"
       style="fill:none;fill-rule:evenodd;stroke:#56505a;stroke-width:2;stroke-linecap:round;stroke-linejoin:miter;stroke-miterlimit:4;stroke-dasharray:none;stroke-opacity:1" />
    <path
       d="M 1,23 1,3"
       style="fill:none;fill-rule:evenodd;stroke:#56505a;stroke-width:2;stroke-linecap:round;stroke-linejoin:miter;stroke-miterlimit:4;stroke-dasharray:none;stroke-opacity:1" />
    <path
       d="M 31,23 31,3"
       style="fill:none;fill-rule:evenodd;stroke:#56505a;stroke-width:2;stroke-linecap:round;stroke-linejoin:miter;stroke-miterlimit:4;stroke-dasharray:none;stroke-opacity:1" />
    <path
       d="m 3.5,21.5 0,-17"
       style="fill:none;fill-rule:evenodd;stroke:#56505a;stroke-width:1;stroke-linecap:butt;stroke-linejoin:miter;stroke-miterlimit:4;stroke-dasharray:none;stroke-opacity:1" />
    <path
       d="m 28.5,21.5 0,-17"
       style="fill:none;fill-rule:evenodd;stroke:#56505a;stroke-width:1;stroke-linecap:butt;stroke-linejoin:miter;stroke-miterlimit:4;stroke-dasharray:none;stroke-opacity:1" />
    <path
       style="fill:none;fill-rule:evenodd;stroke:#56505a;stroke-width:1;stroke-linecap:butt;stroke-linejoin:miter;stroke-miterlimit:4;stroke-dasharray:none;stroke-opacity:1"
       d="m 4.5,3.5 23,0" />
    <path
       style="opacity:1;fill:none;stroke:#56505a;stroke-width:2;stroke-miterlimit:4;stroke-dasharray:none;stroke-opacity:1"
       d="M 1,3 C 1,1.8955 1.895431,1 3,1" />
    <path
       d="m 29,1 c 1.104569,0 2,0.8955 2,2"
       style="opacity:1;fill:none;stroke:#56505a;stroke-width:2;stroke-miterlimit:4;stroke-dasharray:none;stroke-opacity:1" />
    <path
       d="M 3,25 C 1.895431,25 1,24.1046 1,23"
       style="opacity:1;fill:none;stroke:#56505a;stroke-width:2;stroke-miterlimit:4;stroke-dasharray:none;stroke-opacity:1" />
    <path
       style="opacity:1;fill:none;stroke:#56505a;stroke-width:2;stroke-miterlimit:4;stroke-dasharray:none;stroke-opacity:1"
       d="m 31,23 c 0,1.1046 -0.895431,2 -2,2" />
    <path
       style="opacity:1;fill:none;stroke:#56505a;stroke-width:1;stroke-miterlimit:4;stroke-dasharray:none;stroke-opacity:1"
       d="m 3.5,4.5 c 0,-0.5523 0.447715,-1 1,-1" />
    <path
       d="m 27.5,3.5 c 0.552285,0 1,0.4477 1,1"
       style="opacity:1;fill:none;stroke:#56505a;stroke-width:1;stroke-miterlimit:4;stroke-dasharray:none;stroke-opacity:1" />
    <path
       d="m 4.5,22.5 c -0.552285,0 -1,-0.4477 -1,-1"
       style="opacity:1;fill:none;stroke:#56505a;stroke-width:1;stroke-miterlimit:4;stroke-dasharray:none;stroke-opacity:1" />
    <path
       style="opacity:1;fill:none;stroke:#56505a;stroke-width:1;stroke-miterlimit:4;stroke-dasharray:none;stroke-opacity:1"
       d="m 28.5,21.5 c 0,0.5523 -0.447715,1 -1,1" />
    <path
       d="m 4.5,22.5 23,0"
       style="fill:none;fill-rule:evenodd;stroke:#56505a;stroke-width:1;stroke-linecap:butt;stroke-linejoin:miter;stroke-miterlimit:4;stroke-dasharray:none;stroke-opacity:1" />
    <path
       style="fill:none;fill-rule:evenodd;stroke:#56505a;stroke-width:2;stroke-linecap:round;stroke-linejoin:miter;stroke-miterlimit:4;stroke-dasharray:none;stroke-opacity:1"
       d="m 11,31 10,0" />
    <path
       d="m 12.5,31 0,-6"
       style="fill:none;fill-rule:evenodd;stroke:#56505a;stroke-width:1;stroke-linecap:butt;stroke-linejoin:miter;stroke-miterlimit:4;stroke-dasharray:none;stroke-opacity:1" />
    <path
       d="m 19.5,31 0,-6"
       style="fill:none;fill-rule:evenodd;stroke:#56505a;stroke-width:1;stroke-linecap:butt;stroke-linejoin:miter;stroke-miterlimit:4;stroke-dasharray:none;stroke-opacity:1" />
    <path
       d="M 14,17 18,9"
       style="fill:none;fill-rule:evenodd;stroke:#56505a;stroke-width:1;stroke-linecap:butt;stroke-linejoin:miter;stroke-miterlimit:4;stroke-dasharray:none;stroke-opacity:1" />
    <path
       style="fill:none;fill-rule:evenodd;stroke:#56505a;stroke-width:1;stroke-linecap:butt;stroke-linejoin:miter;stroke-miterlimit:4;stroke-dasharray:none;stroke-opacity:1"
       d="m 12,9 -4,4 4,4" />
    <path
       style="fill:none;fill-rule:evenodd;stroke:#56505a;stroke-width:1;stroke-linecap:butt;stroke-linejoin:miter;stroke-miterlimit:4;stroke-dasharray:none;stroke-opacity:1"
       d="m 20,9 4,4 -4,4" />
  </symbol>
  <symbol viewBox="0 0 32 32" id="icon-fto">
    <path
       style="fill:none;fill-rule:evenodd;stroke:#56505a;stroke-width:2;stroke-linecap:round;stroke-linejoin:miter;stroke-miterlimit:4;stroke-dasharray:none;stroke-opacity:1"
       d="m 3,31 26,0"
        />
    <path
       style="fill:none;fill-rule:evenodd;stroke:#56505a;stroke-width:2;stroke-linecap:round;stroke-linejoin:miter;stroke-miterlimit:4;stroke-dasharray:none;stroke-opacity:1"
       d="m 3,7 7,0 m 12,0 7,0"
        />
    <path
       style="fill:none;fill-rule:evenodd;stroke:#56505a;stroke-width:2;stroke-linecap:round;stroke-linejoin:miter;stroke-miterlimit:4;stroke-dasharray:none;stroke-opacity:1"
       d="M 1,29 1,9"
        />
    <path
       style="fill:none;fill-rule:evenodd;stroke:#56505a;stroke-width:2;stroke-linecap:round;stroke-linejoin:miter;stroke-miterlimit:4;stroke-dasharray:none;stroke-opacity:1"
       d="M 31,29 31,9"
        />
    <path
       d="M 1,9 C 1,7.8955 1.895431,7 3,7"
       style="opacity:1;fill:none;stroke:#56505a;stroke-width:2;stroke-miterlimit:4;stroke-dasharray:none;stroke-opacity:1" />
    <path
       style="opacity:1;fill:none;stroke:#56505a;stroke-width:2;stroke-miterlimit:4;stroke-dasharray:none;stroke-opacity:1"
       d="m 29,7 c 1.10457,0 2,0.8955 2,2"
        />
    <path
       style="opacity:1;fill:none;stroke:#56505a;stroke-width:2;stroke-miterlimit:4;stroke-dasharray:none;stroke-opacity:1"
       d="M 3,31 C 1.895431,31 1,30.1046 1,29"
        />
    <path
       d="m 31,29 c 0,1.1046 -0.89543,2 -2,2"
       style="opacity:1;fill:none;stroke:#56505a;stroke-width:2;stroke-miterlimit:4;stroke-dasharray:none;stroke-opacity:1" />
    <path
       style="fill:none;fill-rule:evenodd;stroke:#56505a;stroke-width:1;stroke-linecap:butt;stroke-linejoin:miter;stroke-miterlimit:4;stroke-dasharray:none;stroke-opacity:1"
       d="m 0,13.5 9,0 m 14,0 9,0"
        />
    <path
       style="fill:none;fill-rule:evenodd;stroke:#56505a;stroke-width:1;stroke-linecap:butt;stroke-linejoin:miter;stroke-miterlimit:4;stroke-dasharray:none;stroke-opacity:1"
       d="m 12.5,6.5 0,-2"
        />
    <path
       style="fill:none;fill-rule:evenodd;stroke:#56505a;stroke-width:1;stroke-linecap:butt;stroke-linejoin:miter;stroke-miterlimit:4;stroke-dasharray:none;stroke-opacity:1"
       d="m 19.5,6.5 0,-2"
        />
    <path
       d="m 13.5,3.5 5,0"
       style="fill:none;fill-rule:evenodd;stroke:#56505a;stroke-width:1;stroke-linecap:butt;stroke-linejoin:miter;stroke-miterlimit:4;stroke-dasharray:none;stroke-opacity:1" />
    <path
       d="m 12.5,4.5 c 0,-0.5523 0.447715,-1 1,-1"
       style="opacity:1;fill:none;stroke:#56505a;stroke-width:1;stroke-miterlimit:4;stroke-dasharray:none;stroke-opacity:1" />
    <path
       style="opacity:1;fill:none;stroke:#56505a;stroke-width:1;stroke-miterlimit:4;stroke-dasharray:none;stroke-opacity:1"
       d="m 18.5,3.5 c 0.55228,0 1,0.4477 1,1"
        />
    <path
       style="opacity:1;fill:none;stroke:#56505a;stroke-width:1;stroke-miterlimit:4;stroke-dasharray:none;stroke-opacity:1"
       d="m 13.5,7.5 c -0.552285,0 -1,-0.4477 -1,-1"
        />
    <path
       d="m 19.5,6.5 c 0,0.5523 -0.44772,1 -1,1"
       style="opacity:1;fill:none;stroke:#56505a;stroke-width:1;stroke-miterlimit:4;stroke-dasharray:none;stroke-opacity:1" />
    <path
       style="fill:none;fill-rule:evenodd;stroke:#56505a;stroke-width:1;stroke-linecap:butt;stroke-linejoin:miter;stroke-miterlimit:4;stroke-dasharray:none;stroke-opacity:1"
       d="m 13.5,7.5 5,0"
        />
    <path
       d="m 3.5,8 0,-2.5"
       style="fill:none;fill-rule:evenodd;stroke:#56505a;stroke-width:1;stroke-linecap:butt;stroke-linejoin:miter;stroke-miterlimit:4;stroke-dasharray:none;stroke-opacity:1" />
    <path
       d="m 7.5,8 0,-2.5"
       style="fill:none;fill-rule:evenodd;stroke:#56505a;stroke-width:1;stroke-linecap:butt;stroke-linejoin:miter;stroke-miterlimit:4;stroke-dasharray:none;stroke-opacity:1" />
    <path
       style="fill:none;fill-rule:evenodd;stroke:#56505a;stroke-width:1;stroke-linecap:butt;stroke-linejoin:miter;stroke-miterlimit:4;stroke-dasharray:none;stroke-opacity:1"
       d="m 4.5,4.5 2,0"
        />
    <path
       style="opacity:1;fill:none;stroke:#56505a;stroke-width:1;stroke-miterlimit:4;stroke-dasharray:none;stroke-opacity:1"
       d="m 3.5,5.5 c 0,-0.5523 0.447715,-1 1,-1"
        />
    <path
       d="m 6.5,4.5 c 0.55228,0 1,0.4477 1,1"
       style="opacity:1;fill:none;stroke:#56505a;stroke-width:1;stroke-miterlimit:4;stroke-dasharray:none;stroke-opacity:1" />
    <path
       d="M 22.5,20 A 6.5,6.5 0 0 1 16,26.5 6.5,6.5 0 0 1 9.5,20 6.5,6.5 0 0 1 16,13.5 6.5,6.5 0 0 1 22.5,20 Z"
       style="opacity:1;fill:none;stroke:#56505a;stroke-width:1;stroke-miterlimit:4;stroke-dasharray:none;stroke-opacity:1" />
    <path
       style="opacity:1;fill:none;stroke:#56505a;stroke-width:2;stroke-miterlimit:4;stroke-dasharray:none;stroke-opacity:1"
       d="M 26,20 A 10,10 0 0 1 16,30 10,10 0 0 1 6,20 10,10 0 0 1 16,10 10,10 0 0 1 26,20 Z"
        />
    <path
       style="opacity:1;fill:none;stroke:#56505a;stroke-width:2;stroke-miterlimit:4;stroke-dasharray:none;stroke-opacity:1"
       d="M 10,3 C 10,1.8955 10.895431,1 12,1"
        />
    <path
       d="m 20,1 c 1.10457,0 2,0.8955 2,2"
       style="opacity:1;fill:none;stroke:#56505a;stroke-width:2;stroke-miterlimit:4;stroke-dasharray:none;stroke-opacity:1" />
    <path
       d="m 12,1 8,0"
       style="fill:none;fill-rule:evenodd;stroke:#56505a;stroke-width:2;stroke-linecap:round;stroke-linejoin:miter;stroke-miterlimit:4;stroke-dasharray:none;stroke-opacity:1" />
    <path
       d="M 22,7 22,3"
       style="fill:none;fill-rule:evenodd;stroke:#56505a;stroke-width:2;stroke-linecap:round;stroke-linejoin:miter;stroke-miterlimit:4;stroke-dasharray:none;stroke-opacity:1" />
    <path
       style="fill:none;fill-rule:evenodd;stroke:#56505a;stroke-width:2;stroke-linecap:round;stroke-linejoin:miter;stroke-miterlimit:4;stroke-dasharray:none;stroke-opacity:1"
       d="M 10,7 10,3"
        />
    <path
       d="m 0,28.5 11,0 m 10,0 11,0"
       style="fill:none;fill-rule:evenodd;stroke:#56505a;stroke-width:1;stroke-linecap:butt;stroke-linejoin:miter;stroke-miterlimit:4;stroke-dasharray:none;stroke-opacity:1" />
    <path
       d="m 3.5,13 0,16"
       style="fill:none;fill-rule:evenodd;stroke:#56505a;stroke-width:1;stroke-linecap:butt;stroke-linejoin:miter;stroke-miterlimit:4;stroke-dasharray:none;stroke-opacity:1" />
    <path
       style="fill:none;fill-rule:evenodd;stroke:#56505a;stroke-width:1;stroke-linecap:butt;stroke-linejoin:miter;stroke-miterlimit:4;stroke-dasharray:none;stroke-opacity:1"
       d="m 28.5,13 0,16"
        />
    <path
       style="fill:none;fill-rule:evenodd;stroke:#56505a;stroke-width:1;stroke-linecap:butt;stroke-linejoin:miter;stroke-miterlimit:4;stroke-dasharray:none;stroke-opacity:1"
       d="m 5.5,13 0,16"
        />
    <path
       d="m 26.5,13 0,16"
       style="fill:none;fill-rule:evenodd;stroke:#56505a;stroke-width:1;stroke-linecap:butt;stroke-linejoin:miter;stroke-miterlimit:4;stroke-dasharray:none;stroke-opacity:1" />
  </symbol>
  <symbol viewBox="0 0 32 32" id="icon-ils">
    <path
       style="fill:none;fill-rule:evenodd;stroke:#56505a;stroke-width:1;stroke-linecap:butt;stroke-linejoin:miter;stroke-miterlimit:4;stroke-dasharray:none;stroke-opacity:1"
       d="m 27,20.5 -11,0" />
    <path
       d="m 21.5,8 0,5"
       style="fill:none;fill-rule:evenodd;stroke:#56505a;stroke-width:1;stroke-linecap:butt;stroke-linejoin:miter;stroke-miterlimit:4;stroke-dasharray:none;stroke-opacity:1" />
    <path
       d="m 19.5,14.5 c 0,-1.1046 0.89543,-2 2,-2 1.10457,0 2,0.8954 2,2 0,1.1046 -0.89543,2 -2,2 -1.10457,0 -2,-0.8954 -2,-2 z"
       style="opacity:1;fill:none;stroke:#56505a;stroke-width:1;stroke-miterlimit:4;stroke-dasharray:none;stroke-opacity:1" />
    <path
       style="fill:none;fill-rule:evenodd;stroke:#56505a;stroke-width:1;stroke-linecap:butt;stroke-linejoin:miter;stroke-miterlimit:4;stroke-dasharray:none;stroke-opacity:1"
       d="m 16.5,21 0,-8.5 4,-4 2,0 4,4 0,8.5" />
    <path
       style="fill:none;fill-rule:evenodd;stroke:#56505a;stroke-width:1;stroke-linecap:butt;stroke-linejoin:miter;stroke-miterlimit:4;stroke-dasharray:none;stroke-opacity:1"
       d="m 11.5,21 0,-4" />
    <path
       d="m 14.5,21 0,-4"
       style="fill:none;fill-rule:evenodd;stroke:#56505a;stroke-width:1;stroke-linecap:butt;stroke-linejoin:miter;stroke-miterlimit:4;stroke-dasharray:none;stroke-opacity:1" />
    <path
       style="fill:none;fill-rule:evenodd;stroke:#56505a;stroke-width:1;stroke-linecap:butt;stroke-linejoin:miter;stroke-miterlimit:4;stroke-dasharray:none;stroke-opacity:1"
       d="m 11,17.5 4,0" />
    <path
       d="m 11,20.5 4,0"
       style="fill:none;fill-rule:evenodd;stroke:#56505a;stroke-width:1;stroke-linecap:butt;stroke-linejoin:miter;stroke-miterlimit:4;stroke-dasharray:none;stroke-opacity:1" />
    <path
       d="M 12.5,14 C 12.5,9.8579 15.85786,6.5 20,6.5"
       style="opacity:1;fill:none;stroke:#56505a;stroke-width:1;stroke-miterlimit:4;stroke-dasharray:none;stroke-opacity:1" />
    <path
       style="fill:none;fill-rule:evenodd;stroke:#56505a;stroke-width:1;stroke-linecap:butt;stroke-linejoin:miter;stroke-miterlimit:4;stroke-dasharray:none;stroke-opacity:1"
       d="m 12.5,14 0,4" />
    <path
       d="M 14.5,7 A 1.5,1.5 0 0 1 13,8.5 1.5,1.5 0 0 1 11.5,7 1.5,1.5 0 0 1 13,5.5 1.5,1.5 0 0 1 14.5,7 Z"
       style="opacity:1;fill:none;stroke:#56505a;stroke-width:1;stroke-miterlimit:4;stroke-dasharray:none;stroke-opacity:1" />
    <path
       d="m 21,6.5 -7,0"
       style="fill:none;fill-rule:evenodd;stroke:#56505a;stroke-width:1;stroke-linecap:butt;stroke-linejoin:miter;stroke-miterlimit:4;stroke-dasharray:none;stroke-opacity:1" />
    <path
       d="m 20.5,9 0,-4"
       style="fill:none;fill-rule:evenodd;stroke:#56505a;stroke-width:1;stroke-linecap:butt;stroke-linejoin:miter;stroke-miterlimit:4;stroke-dasharray:none;stroke-opacity:1" />
    <path
       style="fill:none;fill-rule:evenodd;stroke:#56505a;stroke-width:1;stroke-linecap:butt;stroke-linejoin:miter;stroke-miterlimit:4;stroke-dasharray:none;stroke-opacity:1"
       d="m 23.5,9 0,-4" />
    <path
       d="m 20,5.5 4,0"
       style="fill:none;fill-rule:evenodd;stroke:#56505a;stroke-width:1;stroke-linecap:butt;stroke-linejoin:miter;stroke-miterlimit:4;stroke-dasharray:none;stroke-opacity:1" />
    <path
       style="fill:none;fill-rule:evenodd;stroke:#56505a;stroke-width:1;stroke-linecap:butt;stroke-linejoin:miter;stroke-miterlimit:4;stroke-dasharray:none;stroke-opacity:1"
       d="m 20,8.5 4,0" />
    <path
       style="fill:none;fill-rule:evenodd;stroke:#56505a;stroke-width:2;stroke-linecap:round;stroke-linejoin:miter;stroke-miterlimit:4;stroke-dasharray:none;stroke-opacity:1"
       d="m 5,31 26,0" />
    <path
       style="fill:none;fill-rule:evenodd;stroke:#56505a;stroke-width:2;stroke-linecap:round;stroke-linejoin:miter;stroke-miterlimit:4;stroke-dasharray:none;stroke-opacity:1"
       d="M 5,1 31,1" />
    <path
       style="fill:none;fill-rule:evenodd;stroke:#56505a;stroke-width:2;stroke-linecap:round;stroke-linejoin:miter;stroke-miterlimit:4;stroke-dasharray:none;stroke-opacity:1"
       d="M 3,29 3,3" />
    <path
       style="fill:none;fill-rule:evenodd;stroke:#56505a;stroke-width:2;stroke-linecap:round;stroke-linejoin:miter;stroke-miterlimit:4;stroke-dasharray:none;stroke-opacity:1"
       d="M 31,26 31,1" />
    <path
       d="M 3,3 C 3,1.8955 3.89543,1 5,1"
       style="opacity:1;fill:none;stroke:#56505a;stroke-width:2;stroke-miterlimit:4;stroke-dasharray:none;stroke-opacity:1" />
    <path
       style="opacity:1;fill:none;stroke:#56505a;stroke-width:2;stroke-miterlimit:4;stroke-dasharray:none;stroke-opacity:1"
       d="M 5,31 C 3.89543,31 3,30.1046 3,29" />
    <path
       style="opacity:1;fill:none;stroke:#56505a;stroke-width:2;stroke-miterlimit:4;stroke-dasharray:none;stroke-opacity:1"
       d="M 3,28 C 3,26.8954 3.89543,26 5,26" />
    <path
       d="m 5,26 26,0"
       style="fill:none;fill-rule:evenodd;stroke:#56505a;stroke-width:2;stroke-linecap:round;stroke-linejoin:miter;stroke-miterlimit:4;stroke-dasharray:none;stroke-opacity:1" />
    <path
       style="opacity:1;fill:none;stroke:#56505a;stroke-width:1;stroke-miterlimit:4;stroke-dasharray:none;stroke-opacity:1"
       d="m 4,24.5 c -1.933,0 -3.5,-1.567 -3.5,-3.5 0,-1.933 1.567,-3.5 3.5,-3.5 1.933,0 3.5,1.567 3.5,3.5" />
    <path
       d="m 4,17.5 c -1.933,0 -3.5,-1.567 -3.5,-3.5 0,-1.933 1.567,-3.5 3.5,-3.5 1.933,0 3.5,1.567 3.5,3.5"
       style="opacity:1;fill:none;stroke:#56505a;stroke-width:1;stroke-miterlimit:4;stroke-dasharray:none;stroke-opacity:1" />
    <path
       style="opacity:1;fill:none;stroke:#56505a;stroke-width:1;stroke-miterlimit:4;stroke-dasharray:none;stroke-opacity:1"
       d="M 4,10.5 C 2.067,10.5 0.5,8.933 0.5,7 0.5,5.067 2.067,3.5 4,3.5 5.933,3.5 7.5,5.067 7.5,7" />
    <path
       style="fill:none;fill-rule:evenodd;stroke:#56505a;stroke-width:1;stroke-linecap:butt;stroke-linejoin:miter;stroke-miterlimit:4;stroke-dasharray:none;stroke-opacity:1"
       d="m 5,28.5 25,0" />
    <path
       d="m 31,31 c -1.10457,0 -2,-0.8954 -2,-2"
       style="opacity:1;fill:none;stroke:#56505a;stroke-width:2;stroke-miterlimit:4;stroke-dasharray:none;stroke-opacity:1" />
    <path
       d="m 29,28 c 0,-1.1046 0.89543,-2 2,-2"
       style="opacity:1;fill:none;stroke:#56505a;stroke-width:2;stroke-miterlimit:4;stroke-dasharray:none;stroke-opacity:1" />
    <path
       style="opacity:1;fill:none;stroke:#56505a;stroke-width:1;stroke-miterlimit:4;stroke-dasharray:none;stroke-opacity:1"
       d="m 5.5,20.5 c 0,-1.1046 0.89543,-2 2,-2 1.10457,0 2,0.8954 2,2 0,1.1046 -0.89543,2 -2,2 -1.10457,0 -2,-0.8954 -2,-2 z" />
    <path
       d="m 5.5,13.5 c 0,-1.1046 0.89543,-2 2,-2 1.10457,0 2,0.8954 2,2 0,1.1046 -0.89543,2 -2,2 -1.10457,0 -2,-0.8954 -2,-2 z"
       style="opacity:1;fill:none;stroke:#56505a;stroke-width:1;stroke-miterlimit:4;stroke-dasharray:none;stroke-opacity:1" />
    <path
       style="opacity:1;fill:none;stroke:#56505a;stroke-width:1;stroke-miterlimit:4;stroke-dasharray:none;stroke-opacity:1"
       d="m 5.5,6.5 c 0,-1.1046 0.89543,-2 2,-2 1.10457,0 2,0.8954 2,2 0,1.1046 -0.89543,2 -2,2 -1.10457,0 -2,-0.8954 -2,-2 z" />
  </symbol>
  <symbol viewBox="0 0 32 32" id="icon-otr">
    <path
       style="fill:none;fill-rule:evenodd;stroke:#56505a;stroke-width:2;stroke-linecap:round;stroke-linejoin:miter;stroke-miterlimit:4;stroke-dasharray:none;stroke-opacity:1"
       d="m 3,29 26,0" />
    <path
       style="fill:none;fill-rule:evenodd;stroke:#56505a;stroke-width:2;stroke-linecap:round;stroke-linejoin:miter;stroke-miterlimit:4;stroke-dasharray:none;stroke-opacity:1"
       d="M 1,27 1,6" />
    <path
       style="fill:none;fill-rule:evenodd;stroke:#56505a;stroke-width:2;stroke-linecap:round;stroke-linejoin:miter;stroke-miterlimit:4;stroke-dasharray:none;stroke-opacity:1"
       d="M 31,27 31,6" />
    <path
       style="opacity:1;fill:none;stroke:#56505a;stroke-width:2;stroke-miterlimit:4;stroke-dasharray:none;stroke-opacity:1"
       d="M 3,29 C 1.89543,29 1,28.1046 1,27" />
    <path
       d="m 31,27 c 0,1.1046 -0.89543,2 -2,2"
       style="opacity:1;fill:none;stroke:#56505a;stroke-width:2;stroke-miterlimit:4;stroke-dasharray:none;stroke-opacity:1" />
    <path
       d="M 1,6 6,1"
       style="fill:none;fill-rule:evenodd;stroke:#56505a;stroke-width:2;stroke-linecap:round;stroke-linejoin:miter;stroke-miterlimit:4;stroke-dasharray:none;stroke-opacity:1" />
    <path
       style="fill:none;fill-rule:evenodd;stroke:#56505a;stroke-width:2;stroke-linecap:round;stroke-linejoin:miter;stroke-miterlimit:4;stroke-dasharray:none;stroke-opacity:1"
       d="M 31,6 26,1" />
    <path
       d="M 6,1 26,1"
       style="fill:none;fill-rule:evenodd;stroke:#56505a;stroke-width:2;stroke-linecap:round;stroke-linejoin:miter;stroke-miterlimit:4;stroke-dasharray:none;stroke-opacity:1" />
    <path
       d="m 0,6.5 32,0"
       style="fill:none;fill-rule:evenodd;stroke:#56505a;stroke-width:1;stroke-linecap:butt;stroke-linejoin:miter;stroke-miterlimit:4;stroke-dasharray:none;stroke-opacity:1" />
    <path
       d="m 6.5,18.5 0,-12"
       style="fill:none;fill-rule:evenodd;stroke:#56505a;stroke-width:1;stroke-linecap:round;stroke-linejoin:miter;stroke-miterlimit:4;stroke-dasharray:none;stroke-opacity:1" />
    <path
       d="m 18,22 -4,0"
       style="fill:none;fill-rule:evenodd;stroke:#56505a;stroke-width:2;stroke-linecap:round;stroke-linejoin:miter;stroke-miterlimit:4;stroke-dasharray:none;stroke-opacity:1" />
    <path
       style="fill:none;fill-rule:evenodd;stroke:#56505a;stroke-width:1;stroke-linecap:butt;stroke-linejoin:miter;stroke-miterlimit:4;stroke-dasharray:none;stroke-opacity:1"
       d="m 3.5,25.5 0,-6" />
    <path
       style="fill:none;fill-rule:evenodd;stroke:#56505a;stroke-width:1;stroke-linecap:butt;stroke-linejoin:miter;stroke-miterlimit:4;stroke-dasharray:none;stroke-opacity:1"
       d="m 28.5,25.5 0,-6" />
    <path
       d="m 4.5,18.5 23,0"
       style="fill:none;fill-rule:evenodd;stroke:#56505a;stroke-width:1;stroke-linecap:butt;stroke-linejoin:miter;stroke-miterlimit:4;stroke-dasharray:none;stroke-opacity:1" />
    <path
       d="m 3.5,19.5 c 0,-0.5523 0.44772,-1 1,-1"
       style="opacity:1;fill:none;stroke:#56505a;stroke-width:1;stroke-miterlimit:4;stroke-dasharray:none;stroke-opacity:1" />
    <path
       style="opacity:1;fill:none;stroke:#56505a;stroke-width:1;stroke-miterlimit:4;stroke-dasharray:none;stroke-opacity:1"
       d="m 27.5,18.5 c 0.55228,0 1,0.4477 1,1" />
    <path
       style="opacity:1;fill:none;stroke:#56505a;stroke-width:1;stroke-miterlimit:4;stroke-dasharray:none;stroke-opacity:1"
       d="m 4.5,26.5 c -0.55228,0 -1,-0.4477 -1,-1" />
    <path
       d="m 28.5,25.5 c 0,0.5523 -0.44772,1 -1,1"
       style="opacity:1;fill:none;stroke:#56505a;stroke-width:1;stroke-miterlimit:4;stroke-dasharray:none;stroke-opacity:1" />
    <path
       style="fill:none;fill-rule:evenodd;stroke:#56505a;stroke-width:1;stroke-linecap:butt;stroke-linejoin:miter;stroke-miterlimit:4;stroke-dasharray:none;stroke-opacity:1"
       d="m 4.5,26.5 23,0" />
    <path
       style="fill:none;fill-rule:evenodd;stroke:#56505a;stroke-width:1;stroke-linecap:butt;stroke-linejoin:miter;stroke-miterlimit:4;stroke-dasharray:none;stroke-opacity:1"
       d="m 6.5,6.5 14,0 5,5 0,7.5" />
    <path
       style="fill:none;fill-rule:evenodd;stroke:#56505a;stroke-width:1;stroke-linecap:round;stroke-linejoin:miter;stroke-miterlimit:4;stroke-dasharray:none;stroke-opacity:1"
       d="m 20.5,11.5 0,-5" />
    <path
       d="m 20.5,11.5 5,0"
       style="fill:none;fill-rule:evenodd;stroke:#56505a;stroke-width:1;stroke-linecap:round;stroke-linejoin:miter;stroke-miterlimit:4;stroke-dasharray:none;stroke-opacity:1" />
    <path
       d="m 3.5,15.5 0,-6"
       style="fill:none;fill-rule:evenodd;stroke:#56505a;stroke-width:1;stroke-linecap:butt;stroke-linejoin:miter;stroke-miterlimit:4;stroke-dasharray:none;stroke-opacity:1" />
    <path
       d="m 28.5,15.5 0,-6"
       style="fill:none;fill-rule:evenodd;stroke:#56505a;stroke-width:1;stroke-linecap:butt;stroke-linejoin:miter;stroke-miterlimit:4;stroke-dasharray:none;stroke-opacity:1" />
    <path
       style="fill:none;fill-rule:evenodd;stroke:#56505a;stroke-width:1;stroke-linecap:butt;stroke-linejoin:miter;stroke-miterlimit:4;stroke-dasharray:none;stroke-opacity:1"
       d="m 22.5,8.5 5,0" />
    <path
       style="opacity:1;fill:none;stroke:#56505a;stroke-width:1;stroke-miterlimit:4;stroke-dasharray:none;stroke-opacity:1"
       d="m 3.5,9.5 c 0,-0.5523 0.44772,-1 1,-1" />
    <path
       d="m 27.5,8.5 c 0.55228,0 1,0.4477 1,1"
       style="opacity:1;fill:none;stroke:#56505a;stroke-width:1;stroke-miterlimit:4;stroke-dasharray:none;stroke-opacity:1" />
    <path
       d="m 4.5,16.5 c -0.55228,0 -1,-0.4477 -1,-1"
       style="opacity:1;fill:none;stroke:#56505a;stroke-width:1;stroke-miterlimit:4;stroke-dasharray:none;stroke-opacity:1" />
    <path
       style="opacity:1;fill:none;stroke:#56505a;stroke-width:1;stroke-miterlimit:4;stroke-dasharray:none;stroke-opacity:1"
       d="m 28.5,15.5 c 0,0.5523 -0.44772,1 -1,1" />
    <path
       d="m 25,16.5 2.5,0"
       style="fill:none;fill-rule:evenodd;stroke:#56505a;stroke-width:1;stroke-linecap:butt;stroke-linejoin:miter;stroke-miterlimit:4;stroke-dasharray:none;stroke-opacity:1" />
    <path
       style="fill:none;fill-rule:evenodd;stroke:#56505a;stroke-width:1;stroke-linecap:butt;stroke-linejoin:miter;stroke-miterlimit:4;stroke-dasharray:none;stroke-opacity:1"
       d="m 4.5,16.5 2,0" />
    <path
       d="M 4.5,8.5 7,8.5"
       style="fill:none;fill-rule:evenodd;stroke:#56505a;stroke-width:1;stroke-linecap:butt;stroke-linejoin:miter;stroke-miterlimit:4;stroke-dasharray:none;stroke-opacity:1" />
    <path
       d="M 5,31 5,29"
       style="fill:none;fill-rule:evenodd;stroke:#56505a;stroke-width:2;stroke-linecap:round;stroke-linejoin:miter;stroke-miterlimit:4;stroke-dasharray:none;stroke-opacity:1" />
    <path
       d="m 27,31 0,-2"
       style="fill:none;fill-rule:evenodd;stroke:#56505a;stroke-width:2;stroke-linecap:round;stroke-linejoin:miter;stroke-miterlimit:4;stroke-dasharray:none;stroke-opacity:1" />
    <path
       style="opacity:1;fill:none;stroke:#56505a;stroke-width:1;stroke-miterlimit:4;stroke-dasharray:none;stroke-opacity:1"
       d="M 12.5,13 A 1.5,1.5 0 0 1 11,14.5 1.5,1.5 0 0 1 9.5,13 1.5,1.5 0 0 1 11,11.5 1.5,1.5 0 0 1 12.5,13 Z" />
    <path
       d="m 15.5,15 0,-4"
       style="fill:none;fill-rule:evenodd;stroke:#56505a;stroke-width:1;stroke-linecap:butt;stroke-linejoin:miter;stroke-miterlimit:4;stroke-dasharray:none;stroke-opacity:1" />
    <path
       style="fill:none;fill-rule:evenodd;stroke:#56505a;stroke-width:1;stroke-linecap:butt;stroke-linejoin:miter;stroke-miterlimit:4;stroke-dasharray:none;stroke-opacity:1"
       d="m 18.5,15 0,-4" />
    <path
       d="m 15,11.5 4,0"
       style="fill:none;fill-rule:evenodd;stroke:#56505a;stroke-width:1;stroke-linecap:butt;stroke-linejoin:miter;stroke-miterlimit:4;stroke-dasharray:none;stroke-opacity:1" />
    <path
       style="fill:none;fill-rule:evenodd;stroke:#56505a;stroke-width:1;stroke-linecap:butt;stroke-linejoin:miter;stroke-miterlimit:4;stroke-dasharray:none;stroke-opacity:1"
       d="m 15,14.5 4,0" />
    <path
       style="fill:none;fill-rule:evenodd;stroke:#56505a;stroke-width:2;stroke-linecap:round;stroke-linejoin:miter;stroke-miterlimit:4;stroke-dasharray:none;stroke-opacity:1"
       d="m 18,22 -4,0" />
  </symbol>
  <symbol viewBox="0 0 32 32" id="icon-abm">
    <path
       id="path14612"
       d="m 1,31 30,0"
       style="fill:none;fill-rule:evenodd;stroke:#56505a;stroke-width:2;stroke-linecap:round;stroke-linejoin:miter;stroke-miterlimit:4;stroke-dasharray:none;stroke-opacity:1" />
    <path
       id="path14614"
       d="m 5,22 7,0 m 8,0 7,0"
       style="fill:none;fill-rule:evenodd;stroke:#56505a;stroke-width:2;stroke-linecap:round;stroke-linejoin:miter;stroke-miterlimit:4;stroke-dasharray:none;stroke-opacity:1" />
    <path
       id="path14616"
       d="M 1,31 1,26"
       style="fill:none;fill-rule:evenodd;stroke:#56505a;stroke-width:2;stroke-linecap:round;stroke-linejoin:miter;stroke-miterlimit:4;stroke-dasharray:none;stroke-opacity:1" />
    <path
       id="path14618"
       d="m 31,31 0,-5"
       style="fill:none;fill-rule:evenodd;stroke:#56505a;stroke-width:2;stroke-linecap:round;stroke-linejoin:miter;stroke-miterlimit:4;stroke-dasharray:none;stroke-opacity:1" />
    <path
       style="fill:none;fill-rule:evenodd;stroke:#56505a;stroke-width:1;stroke-linecap:butt;stroke-linejoin:miter;stroke-miterlimit:4;stroke-dasharray:none;stroke-opacity:1"
       d="m 6.5,31 0,-4"
       id="path14620" />
    <path
       style="fill:none;fill-rule:evenodd;stroke:#56505a;stroke-width:1;stroke-linecap:butt;stroke-linejoin:miter;stroke-miterlimit:4;stroke-dasharray:none;stroke-opacity:1"
       d="m 25.5,31 0,-4"
       id="path14622" />
    <path
       style="fill:none;fill-rule:evenodd;stroke:#56505a;stroke-width:2;stroke-linecap:round;stroke-linejoin:miter;stroke-miterlimit:4;stroke-dasharray:none;stroke-opacity:1"
       d="m 14,14 4,0"
       id="path14624" />
    <path
       style="fill:none;fill-rule:evenodd;stroke:#56505a;stroke-width:2;stroke-linecap:round;stroke-linejoin:miter;stroke-miterlimit:4;stroke-dasharray:none;stroke-opacity:1"
       d="m 12,20 0,-4"
       id="path14626" />
    <path
       style="fill:none;fill-rule:evenodd;stroke:#56505a;stroke-width:2;stroke-linecap:round;stroke-linejoin:miter;stroke-miterlimit:4;stroke-dasharray:none;stroke-opacity:1"
       d="m 20,20 0,-4"
       id="path14628" />
    <path
       id="path14630"
       d="m 12,16 c 0,-1.1046 0.89543,-2 2,-2"
       style="opacity:1;fill:none;stroke:#56505a;stroke-width:2;stroke-miterlimit:4;stroke-dasharray:none;stroke-opacity:1" />
    <path
       style="opacity:1;fill:none;stroke:#56505a;stroke-width:2;stroke-miterlimit:4;stroke-dasharray:none;stroke-opacity:1"
       d="m 18,14 c 1.10457,0 2,0.8954 2,2"
       id="path14632" />
    <path
       id="path14634"
       d="m 14,16.5 4,0"
       style="fill:none;fill-rule:evenodd;stroke:#56505a;stroke-width:1;stroke-linecap:butt;stroke-linejoin:miter;stroke-miterlimit:4;stroke-dasharray:none;stroke-opacity:1" />
    <path
       id="path14636"
       d="m 13,9 0,0"
       style="fill:none;fill-rule:evenodd;stroke:#56505a;stroke-width:2;stroke-linecap:round;stroke-linejoin:miter;stroke-miterlimit:4;stroke-dasharray:none;stroke-opacity:1" />
    <path
       style="fill:none;fill-rule:evenodd;stroke:#56505a;stroke-width:2;stroke-linecap:round;stroke-linejoin:miter;stroke-miterlimit:4;stroke-dasharray:none;stroke-opacity:1"
       d="m 19,9 0,0"
       id="path14638" />
    <path
       id="path14640"
       d="m 19.5,22 0,-6"
       style="fill:none;fill-rule:evenodd;stroke:#56505a;stroke-width:1;stroke-linecap:butt;stroke-linejoin:miter;stroke-miterlimit:4;stroke-dasharray:none;stroke-opacity:1" />
    <path
       style="fill:none;fill-rule:evenodd;stroke:#56505a;stroke-width:1;stroke-linecap:butt;stroke-linejoin:miter;stroke-miterlimit:4;stroke-dasharray:none;stroke-opacity:1"
       d="m 12.5,22 0,-6"
       id="path14642" />
    <path
       id="path14644"
       d="M 1,26 C 1,23.7909 2.79086,22 5,22"
       style="opacity:1;fill:none;stroke:#56505a;stroke-width:2;stroke-miterlimit:4;stroke-dasharray:none;stroke-opacity:1" />
    <path
       style="opacity:1;fill:none;stroke:#56505a;stroke-width:2;stroke-miterlimit:4;stroke-dasharray:none;stroke-opacity:1"
       d="m 27,22 c 2.20914,0 4,1.7909 4,4"
       id="path14646" />
    <path
       style="fill:none;fill-rule:evenodd;stroke:#56505a;stroke-width:1;stroke-linecap:butt;stroke-linejoin:miter;stroke-miterlimit:4;stroke-dasharray:none;stroke-opacity:1"
       d="m 32,2.5 -11,0 m -10,0 -11,0"
       id="path14648" />
    <path
       id="path14650"
       d="m 29.5,23 0,-23"
       style="fill:none;fill-rule:evenodd;stroke:#56505a;stroke-width:1;stroke-linecap:butt;stroke-linejoin:miter;stroke-miterlimit:4;stroke-dasharray:none;stroke-opacity:1" />
    <path
       style="fill:none;fill-rule:evenodd;stroke:#56505a;stroke-width:1;stroke-linecap:butt;stroke-linejoin:miter;stroke-miterlimit:4;stroke-dasharray:none;stroke-opacity:1"
       d="M 2.5,23 2.5,0"
       id="path14652" />
    <path
       style="opacity:1;fill:none;stroke:#56505a;stroke-width:2;stroke-miterlimit:4;stroke-dasharray:none;stroke-opacity:1"
       d="m 25,12 c 0,4.9706 -4.02944,9 -9,9 -4.97056,0 -9,-4.0294 -9,-9 m 0,-2 c 0,-4.9706 4.02944,-9 9,-9 4.97056,0 9,4.0294 9,9"
       id="path14654" />
    <path
       style="fill:none;fill-rule:evenodd;stroke:#56505a;stroke-width:2;stroke-linecap:round;stroke-linejoin:miter;stroke-miterlimit:4;stroke-dasharray:none;stroke-opacity:1"
       d="m 25,12 0,-2"
       id="path14656" />
    <path
       id="path14658"
       d="M 7,12 7,10"
       style="fill:none;fill-rule:evenodd;stroke:#56505a;stroke-width:2;stroke-linecap:round;stroke-linejoin:miter;stroke-miterlimit:4;stroke-dasharray:none;stroke-opacity:1" />
    <path
       style="opacity:1;fill:none;stroke:#56505a;stroke-width:1;stroke-miterlimit:4;stroke-dasharray:none;stroke-opacity:1"
       d="m 19.5,22 c 0,1.933 -1.567,3.5 -3.5,3.5 -1.933,0 -3.5,-1.567 -3.5,-3.5"
       id="path14660" />
    <path
       id="path14662"
       d="M 26.5,17 A 1.5,1.5 0 0 1 25,18.5 1.5,1.5 0 0 1 23.5,17 1.5,1.5 0 0 1 25,15.5 1.5,1.5 0 0 1 26.5,17 Z"
       style="opacity:1;fill:none;stroke:#56505a;stroke-width:1;stroke-miterlimit:4;stroke-dasharray:none;stroke-opacity:1" />
  </symbol>
</svg>
